<?xml version="1.0" encoding="UTF-8" standalone="no"?>
<svg
   width="24"
   height="24"
   viewBox="0 0 24 24"
   fill="none"
   stroke="currentColor"
   stroke-width="2"
   stroke-linecap="round"
   stroke-linejoin="round"
   class="lucide lucide-arrow-big-down-icon lucide-arrow-big-down"
   version="1.1"
   id="svg1"
   sodipodi:docname="Up_white.svg"
   inkscape:version="1.4.2 (f4327f4, 2025-05-13)"
   xmlns:inkscape="http://www.inkscape.org/namespaces/inkscape"
   xmlns:sodipodi="http://sodipodi.sourceforge.net/DTD/sodipodi-0.dtd"
   xmlns="http://www.w3.org/2000/svg"
   xmlns:svg="http://www.w3.org/2000/svg">
  <defs
     id="defs1" />
  <sodipodi:namedview
     id="namedview1"
     pagecolor="#ffffff"
     bordercolor="#000000"
     borderopacity="0.25"
     inkscape:showpageshadow="2"
     inkscape:pageopacity="0.0"
     inkscape:pagecheckerboard="0"
     inkscape:deskcolor="#d1d1d1"
     inkscape:zoom="48.958333"
     inkscape:cx="11.989787"
     inkscape:cy="12"
     inkscape:window-width="2560"
     inkscape:window-height="1377"
     inkscape:window-x="-8"
     inkscape:window-y="-8"
     inkscape:window-maximized="1"
     inkscape:current-layer="svg1" />
  <path
     d="M15 11a1 1 0 0 0 1 1h2.939a1 1 0 0 1 .75 1.811l-6.835 6.836a1.207 1.207 0 0 1-1.707 0L4.31 13.81a1 1 0 0 1 .75-1.811H8a1 1 0 0 0 1-1V5a1 1 0 0 1 1-1h4a1 1 0 0 1 1 1z"
     id="path1" />
  <path
     style="fill:#ffffff;stroke-width:0.0408511"
     d="M 11.640954,21.956389 C 11.328022,21.899721 11.047472,21.788045 10.774468,21.611473 10.690886,21.557415 9.5376658,20.42094 7.1479278,18.037594 5.2207347,16.115556 3.5724203,14.475522 3.4850067,14.393074 2.952083,13.890425 2.749032,13.09519 2.973187,12.388568 3.178419,11.741599 3.6896472,11.251306 4.3614613,11.057145 l 0.162794,-0.04705 1.7407174,-0.0061 L 8.00569,10.997895 8.01148,7.8581242 8.01727,4.7183539 8.071461,4.521827 C 8.2728194,3.79177 8.7941607,3.2688186 9.5182979,3.0705218 l 0.173617,-0.047543 H 12 14.308085 l 0.173617,0.047543 c 0.723988,0.1982559 1.245418,0.7218843 1.447395,1.453499 l 0.05363,0.1942771 0.0058,3.1527198 0.0058,3.1527193 1.730504,-0.0058 c 1.604804,-0.0054 1.740616,-0.0031 1.869702,0.03059 0.811865,0.212117 1.380987,0.840484 1.503522,1.660036 0.09124,0.610267 -0.134915,1.263005 -0.583702,1.684677 -0.08763,0.08234 -1.708316,1.700047 -3.601516,3.594905 -2.486949,2.489128 -3.489712,3.479859 -3.613458,3.570101 -0.479455,0.349645 -1.101476,0.498966 -1.658408,0.398113 z m 0.4674,-1.977154 c 0.02589,-0.01437 1.620616,-1.597278 3.54383,-3.517574 l 3.496752,-3.491448 H 17.402553 15.65617 l -0.16126,-0.04671 C 14.845275,12.735344 14.330356,12.257502 14.123448,11.650798 14.008697,11.314322 14.011915,11.417468 14.011915,8.0756223 V 4.9940426 H 12.000437 9.9889589 l -0.00561,3.160851 -0.00561,3.1608514 -0.04588,0.161534 C 9.7265159,12.200225 9.2161497,12.717553 8.50509,12.923505 l -0.1612602,0.04671 h -1.746383 -1.746383 l 3.4967524,3.491448 c 1.9232138,1.920296 3.5179368,3.503204 3.5438298,3.517574 0.02589,0.01437 0.07465,0.02613 0.108354,0.02613 0.0337,0 0.08246,-0.01176 0.108354,-0.02613 z"
     id="path2" />
</svg>
