<?xml version="1.0" encoding="UTF-8" standalone="no"?>
<svg
   width="24"
   height="24"
   viewBox="0 0 24 24"
   fill="none"
   stroke="currentColor"
   stroke-width="2"
   stroke-linecap="round"
   stroke-linejoin="round"
   class="lucide lucide-file-icon lucide-file"
   version="1.1"
   id="svg2"
   sodipodi:docname="file_white.svg"
   inkscape:version="1.4.2 (f4327f4, 2025-05-13)"
   xmlns:inkscape="http://www.inkscape.org/namespaces/inkscape"
   xmlns:sodipodi="http://sodipodi.sourceforge.net/DTD/sodipodi-0.dtd"
   xmlns="http://www.w3.org/2000/svg"
   xmlns:svg="http://www.w3.org/2000/svg">
  <defs
     id="defs2" />
  <sodipodi:namedview
     id="namedview2"
     pagecolor="#ffffff"
     bordercolor="#000000"
     borderopacity="0.25"
     inkscape:showpageshadow="2"
     inkscape:pageopacity="0.0"
     inkscape:pagecheckerboard="0"
     inkscape:deskcolor="#d1d1d1"
     inkscape:zoom="48.958333"
     inkscape:cx="11.989787"
     inkscape:cy="12"
     inkscape:window-width="2560"
     inkscape:window-height="1377"
     inkscape:window-x="-8"
     inkscape:window-y="-8"
     inkscape:window-maximized="1"
     inkscape:current-layer="svg2" />
  <path
     d="M15 2H6a2 2 0 0 0-2 2v16a2 2 0 0 0 2 2h12a2 2 0 0 0 2-2V7Z"
     id="path1" />
  <path
     d="M14 2v4a2 2 0 0 0 2 2h4"
     id="path2" />
  <path
     style="fill:#ffffff;stroke-width:0.0408511"
     d="M 5.6211824,22.965116 C 5.2704376,22.920778 4.8113529,22.764733 4.5068404,22.586345 3.9906608,22.283957 3.5541971,21.808438 3.3007274,21.272309 3.138671,20.929532 3.0620375,20.644249 3.0238831,20.241702 2.994242,19.928974 2.994242,4.071026 3.0238831,3.7582979 3.0620375,3.3557509 3.138671,3.0704677 3.3007274,2.7276914 3.5470156,2.206751 3.9643124,1.7442685 4.4629787,1.4395894 4.7278505,1.2777559 5.0521622,1.1506285 5.412766,1.0672806 l 0.1940425,-0.04485 4.7285105,-0.00669 c 3.456712,-0.00489 4.761473,-4.757e-4 4.851064,0.016411 0.0674,0.012705 0.182298,0.051442 0.255319,0.086083 0.123239,0.058463 0.32057,0.2507122 2.750002,2.6791821 2.558238,2.5572251 2.61889,2.6196525 2.690632,2.7693908 0.04037,0.084255 0.08271,0.2129362 0.0941,0.2859575 0.0291,0.1865854 0.02879,13.081839 -3.18e-4,13.388936 -0.07056,0.744454 -0.355031,1.351509 -0.875828,1.869002 -0.427611,0.424898 -0.896526,0.680139 -1.50899,0.821376 l -0.198108,0.04568 -6.311489,0.0031 c -3.7521084,0.0018 -6.3719227,-0.0045 -6.4605196,-0.01574 z M 18.249364,20.976384 c 0.382513,-0.09963 0.683602,-0.425415 0.745066,-0.806171 0.01457,-0.09029 0.02148,-1.898697 0.02159,-5.652766 l 1.54e-4,-5.5200002 h -1.529751 c -1.520658,0 -1.788853,-0.00938 -2.101242,-0.073471 C 14.880419,8.820413 14.342057,8.5377606 13.959082,8.1752432 13.499549,7.7402567 13.215131,7.2334321 13.067928,6.587234 13.024874,6.398235 13.023535,6.3489941 13.016417,4.692766 l -0.0073,-1.7004256 H 9.439909 c -3.9310313,0 -3.6766558,-0.00817 -3.9288262,0.1262323 -0.2554333,0.1361447 -0.4588894,0.4223904 -0.5055127,0.7112145 -0.03001,0.1859081 -0.03001,16.1545178 0,16.3404258 0.060937,0.377494 0.3593151,0.703779 0.7362988,0.805163 0.09489,0.02552 0.9555151,0.02978 6.2487331,0.03094 5.449179,0.0012 6.152175,-0.0022 6.258762,-0.02993 z M 16.810169,5.2084643 15.002553,3.4007581 l -0.0054,1.3532381 c -0.0036,0.9148034 0.0018,1.3880638 0.01682,1.4607288 0.07788,0.3772327 0.425368,0.7166611 0.796736,0.7782631 0.06103,0.010124 0.717583,0.019481 1.459006,0.020794 l 1.348042,0.00239 z"
     id="path3" />
</svg>
