<?xml version="1.0" encoding="UTF-8" standalone="no"?>
<svg
   width="24"
   height="24"
   viewBox="0 0 24 24"
   fill="none"
   stroke="currentColor"
   stroke-width="2"
   stroke-linecap="round"
   stroke-linejoin="round"
   class="lucide lucide-folder-icon lucide-folder"
   version="1.1"
   id="svg1"
   sodipodi:docname="Folder_white.svg"
   inkscape:version="1.4.2 (f4327f4, 2025-05-13)"
   xmlns:inkscape="http://www.inkscape.org/namespaces/inkscape"
   xmlns:sodipodi="http://sodipodi.sourceforge.net/DTD/sodipodi-0.dtd"
   xmlns="http://www.w3.org/2000/svg"
   xmlns:svg="http://www.w3.org/2000/svg">
  <defs
     id="defs1" />
  <sodipodi:namedview
     id="namedview1"
     pagecolor="#ffffff"
     bordercolor="#000000"
     borderopacity="0.25"
     inkscape:showpageshadow="2"
     inkscape:pageopacity="0.0"
     inkscape:pagecheckerboard="0"
     inkscape:deskcolor="#d1d1d1"
     inkscape:zoom="32.708333"
     inkscape:cx="12.015287"
     inkscape:cy="12"
     inkscape:window-width="1680"
     inkscape:window-height="987"
     inkscape:window-x="2552"
     inkscape:window-y="219"
     inkscape:window-maximized="1"
     inkscape:current-layer="svg1" />
  <path
     d="M20 20a2 2 0 0 0 2-2V8a2 2 0 0 0-2-2h-7.9a2 2 0 0 1-1.69-.9L9.6 3.9A2 2 0 0 0 7.93 3H4a2 2 0 0 0-2 2v13a2 2 0 0 0 2 2Z"
     id="path1" />
  <path
     style="fill:#ffffff;stroke-width:0.0611465"
     d="M 3.6019554,20.955795 C 2.376208,20.774451 1.4258323,19.912923 1.0917434,18.680255 l -0.06629,-0.244586 -0.00981,-6.741401 C 1.0089622,7.0996115 1.0161162,4.8631506 1.0381122,4.6711331 1.1183099,3.9710323 1.4289642,3.3502675 1.9452002,2.8585446 2.3508109,2.4721939 2.7466341,2.2504383 3.2982761,2.1004985 l 0.2940806,-0.079933 2.1248408,-0.011396 c 1.4187179,-0.00761 2.2340215,-1.248e-4 2.4533836,0.022521 0.7661038,0.079088 1.4016284,0.383243 1.9130799,0.9155786 0.106268,0.1106076 0.387393,0.4901729 0.624723,0.8434783 0.237328,0.3533055 0.48525,0.7156908 0.550936,0.8053008 0.122909,0.1676749 0.320535,0.314475 0.510325,0.3790794 0.08124,0.027654 1.185656,0.04105 4.449463,0.053972 l 4.341402,0.017188 0.229299,0.071249 c 1.199109,0.3725913 2.022713,1.3372824 2.169431,2.5410625 0.02593,0.2127544 0.03267,1.6929805 0.02518,5.5337579 l -0.01022,5.243312 -0.06612,0.244586 c -0.153632,0.568317 -0.424892,1.043794 -0.817036,1.432139 -0.394829,0.391004 -0.799347,0.622526 -1.362387,0.77975 l -0.290445,0.0811 -8.331211,0.0041 c -4.5821652,0.0023 -8.4094381,-0.0074 -8.5050506,-0.02159 z M 20.479656,18.895298 c 0.208961,-0.115741 0.382847,-0.313514 0.462258,-0.525759 0.06208,-0.165911 0.06238,-0.196154 0.05452,-5.415962 l -0.0079,-5.2491184 -0.07067,-0.1434744 C 20.81955,7.3613885 20.631748,7.1780056 20.42768,7.0823346 L 20.254777,7.0012739 15.943949,6.9857271 11.633121,6.97018 11.341713,6.8898197 C 11.006395,6.7973506 10.62074,6.6155593 10.352077,6.4233215 9.9996294,6.1711338 9.7701062,5.9017195 9.2426009,5.1210191 8.9642369,4.7090446 8.6936227,4.3266743 8.6412358,4.2713074 8.5888488,4.2159405 8.470146,4.1333928 8.3774519,4.0878679 L 8.2089172,4.0050955 H 5.9617834 3.7146497 L 3.5617834,4.0804162 C 3.346916,4.1862862 3.136809,4.4111379 3.0593853,4.6180713 l -0.063743,0.1703696 0.00791,6.7624671 0.00791,6.762468 0.068978,0.129086 c 0.1346496,0.251987 0.3315368,0.425968 0.5847483,0.516719 0.08974,0.03216 1.6707368,0.03843 8.3806694,0.03322 l 8.270064,-0.0064 z"
     id="path2" />
</svg>
