<?xml version="1.0" encoding="UTF-8" standalone="no"?>
<svg
   width="24"
   height="24"
   viewBox="0 0 24 24"
   fill="none"
   stroke="currentColor"
   stroke-width="2"
   stroke-linecap="round"
   stroke-linejoin="round"
   class="lucide lucide-file-plus-icon lucide-file-plus"
   version="1.1"
   id="svg4"
   sodipodi:docname="NewFile_white.svg"
   inkscape:version="1.4.2 (f4327f4, 2025-05-13)"
   xmlns:inkscape="http://www.inkscape.org/namespaces/inkscape"
   xmlns:sodipodi="http://sodipodi.sourceforge.net/DTD/sodipodi-0.dtd"
   xmlns="http://www.w3.org/2000/svg"
   xmlns:svg="http://www.w3.org/2000/svg">
  <defs
     id="defs4" />
  <sodipodi:namedview
     id="namedview4"
     pagecolor="#ffffff"
     bordercolor="#000000"
     borderopacity="0.25"
     inkscape:showpageshadow="2"
     inkscape:pageopacity="0.0"
     inkscape:pagecheckerboard="0"
     inkscape:deskcolor="#d1d1d1"
     inkscape:zoom="32.708333"
     inkscape:cx="12.015287"
     inkscape:cy="12"
     inkscape:window-width="1680"
     inkscape:window-height="987"
     inkscape:window-x="2552"
     inkscape:window-y="219"
     inkscape:window-maximized="1"
     inkscape:current-layer="svg4" />
  <path
     d="M15 2H6a2 2 0 0 0-2 2v16a2 2 0 0 0 2 2h12a2 2 0 0 0 2-2V7Z"
     id="path1" />
  <path
     d="M14 2v4a2 2 0 0 0 2 2h4"
     id="path2" />
  <path
     d="M9 15h6"
     id="path3" />
  <path
     d="M12 18v-6"
     id="path4" />
  <path
     style="fill:#ffffff;stroke-width:0.0611465"
     d="M 5.4420382,22.930403 C 4.3251921,22.705198 3.4304875,21.871476 3.1120614,20.759236 L 3.0420382,20.51465 V 12 3.4853503 l 0.070023,-0.244586 C 3.2142791,2.8837249 3.4522392,2.4210386 3.6820292,2.1325266 4.0561442,1.662808 4.6596407,1.2712477 5.2585987,1.1096176 l 0.2598726,-0.070127 h 4.8764327 4.876434 l 0.152866,0.073321 c 0.225086,0.1079613 5.353814,5.2363641 5.460782,5.4604367 l 0.07298,0.1528662 v 6.8789815 6.87898 l -0.0692,0.259873 c -0.157618,0.591933 -0.547256,1.190857 -1.024992,1.575544 -0.286456,0.230664 -0.743674,0.466386 -1.107084,0.570766 l -0.244586,0.07025 -6.435669,0.005 c -5.2014982,0.004 -6.4737784,-0.0027 -6.6343948,-0.03509 z M 18.284038,20.970049 c 0.290187,-0.08618 0.487347,-0.252385 0.630872,-0.531832 l 0.08636,-0.168153 0.008,-5.646819 0.008,-5.6468191 -1.781289,-0.010593 C 15.203746,8.9537473 15.296851,8.964631 14.690446,8.668254 13.92964,8.2964148 13.347101,7.5914953 13.110743,6.7566879 13.043026,6.5175125 13.041272,6.4730443 13.03146,4.7464968 L 13.021426,2.9808917 H 9.4512939 c -3.187909,0 -3.5878186,0.00525 -3.7353321,0.049059 C 5.4237279,3.116735 5.1926539,3.3157579 5.0632516,3.592127 l -0.064526,0.1378093 v 8.2547767 c 0,7.943368 0.00212,8.259968 0.056219,8.392357 0.071578,0.175166 0.2393456,0.380617 0.3868294,0.473719 0.2753639,0.17383 -0.1166307,0.163876 6.545033,0.16619 5.543368,0.0019 6.147889,-0.0026 6.297231,-0.04693 z M 16.81519,5.1973461 14.996178,3.3781316 l -0.008,1.3669802 c -0.0069,1.1766883 -0.0012,1.3903161 0.04077,1.5346151 0.104981,0.3611229 0.370035,0.6175441 0.731524,0.7076997 0.05044,0.012581 0.717663,0.024283 1.482706,0.026004 l 1.390986,0.00313 z"
     id="path5" />
  <path
     style="fill:#ffffff;stroke-width:0.0611465"
     d="m 11.668654,18.924846 c -0.245877,-0.0933 -0.460641,-0.299398 -0.578821,-0.555465 -0.06598,-0.142964 -0.06848,-0.183899 -0.07754,-1.270233 l -0.0094,-1.122509 -1.1371338,-0.0087 c -1.1179005,-0.0086 -1.1395615,-0.0099 -1.2806713,-0.0794 -0.4830044,-0.23791 -0.7003621,-0.832752 -0.4736287,-1.296179 0.1066977,-0.218082 0.336555,-0.428636 0.5586454,-0.511731 0.1576793,-0.05899 0.2332357,-0.06279 1.2502801,-0.06279 h 1.0824593 l 0.01056,-1.10828 c 0.0093,-0.977687 0.01705,-1.125371 0.0657,-1.253326 0.07247,-0.190611 0.294641,-0.434142 0.489544,-0.536619 0.135875,-0.07144 0.191892,-0.0821 0.431315,-0.0821 0.239423,0 0.29544,0.01066 0.431315,0.0821 0.194903,0.102477 0.417071,0.346008 0.489544,0.536619 0.04865,0.127955 0.05639,0.275639 0.0657,1.253326 l 0.01056,1.10828 h 1.082459 c 1.032221,0 1.0906,0.003 1.257856,0.06562 0.222658,0.08331 0.442373,0.286727 0.552238,0.511283 0.117061,0.239266 0.118123,0.55413 0.0027,0.803639 -0.09416,0.203553 -0.277308,0.391542 -0.477568,0.490184 -0.141029,0.06947 -0.162852,0.07082 -1.280608,0.07937 l -1.137134,0.0087 -0.0094,1.122509 -0.0094,1.122508 -0.07932,0.168153 c -0.09596,0.203438 -0.286324,0.399453 -0.48033,0.494592 -0.179093,0.08783 -0.569674,0.108887 -0.750043,0.04044 z"
     id="path6" />
</svg>
