<?xml version="1.0" encoding="UTF-8" standalone="no"?>
<svg
   width="24"
   height="24"
   viewBox="0 0 24 24"
   fill="none"
   stroke="currentColor"
   stroke-width="2"
   stroke-linecap="round"
   stroke-linejoin="round"
   class="lucide lucide-square-percent-icon lucide-square-percent"
   version="1.1"
   id="svg3"
   sodipodi:docname="Percent_white.svg"
   inkscape:version="1.4.2 (f4327f4, 2025-05-13)"
   xmlns:inkscape="http://www.inkscape.org/namespaces/inkscape"
   xmlns:sodipodi="http://sodipodi.sourceforge.net/DTD/sodipodi-0.dtd"
   xmlns="http://www.w3.org/2000/svg"
   xmlns:svg="http://www.w3.org/2000/svg">
  <defs
     id="defs3" />
  <sodipodi:namedview
     id="namedview3"
     pagecolor="#ffffff"
     bordercolor="#000000"
     borderopacity="0.25"
     inkscape:showpageshadow="2"
     inkscape:pageopacity="0.0"
     inkscape:pagecheckerboard="0"
     inkscape:deskcolor="#d1d1d1"
     inkscape:zoom="48.958333"
     inkscape:cx="11.989787"
     inkscape:cy="12"
     inkscape:window-width="2560"
     inkscape:window-height="1377"
     inkscape:window-x="-8"
     inkscape:window-y="-8"
     inkscape:window-maximized="1"
     inkscape:current-layer="svg3" />
  <rect
     width="18"
     height="18"
     x="3"
     y="3"
     rx="2"
     id="rect1" />
  <path
     d="m15 9-6 6"
     id="path1" />
  <path
     d="M9 9h.01"
     id="path2" />
  <path
     d="M15 15h.01"
     id="path3" />
  <path
     style="fill:#ffffff;stroke-width:0.0408511"
     d="M 8.7217021,15.94574 C 8.5553209,15.890054 8.455889,15.833714 8.3398185,15.729356 8.0029209,15.426456 7.9166976,14.934857 8.1302081,14.53427 c 0.04986,-0.09355 0.6461763,-0.699228 3.1910869,-3.241201 3.113512,-3.1099171 3.130554,-3.1265075 3.280897,-3.1938943 0.268335,-0.1202732 0.584968,-0.1091497 0.859984,0.030212 0.379089,0.1920988 0.599353,0.6661334 0.502028,1.0804241 -0.0694,0.295432 0.09373,0.1217906 -3.285499,3.4971202 -3.1211002,3.117497 -3.1301906,3.126345 -3.2820536,3.194428 -0.1338481,0.06001 -0.177123,0.0691 -0.3574468,0.07513 -0.1588749,0.0053 -0.2305075,-0.0016 -0.3175025,-0.03074 z"
     id="path4" />
  <path
     style="fill:#ffffff;stroke-width:0.0408511"
     d="M 8.8544681,9.976384 C 8.6215795,9.9373023 8.444836,9.8417551 8.2768307,9.6641143 7.9019419,9.2677247 7.9304377,8.6387123 8.3399643,8.2705127 8.6775084,7.9670315 9.1800377,7.9305091 9.5567665,8.1820789 9.713619,8.286821 9.8085109,8.397314 9.8974062,8.5787234 10.074817,8.9407677 10.007458,9.3667253 9.7237838,9.6766437 9.5924979,9.8200757 9.3523487,9.9460882 9.1506383,9.9773878 c -0.1482684,0.023007 -0.1531882,0.02299 -0.2961702,-0.001 z"
     id="path5" />
  <path
     style="fill:#ffffff;stroke-width:0.0408511"
     d="m 14.762638,15.960838 c -0.133582,-0.03149 -0.325687,-0.142091 -0.445798,-0.256657 -0.439124,-0.418853 -0.392145,-1.127621 0.09921,-1.49682 0.292587,-0.219846 0.684261,-0.256248 1.015437,-0.09438 0.181279,0.0886 0.291826,0.183493 0.396645,0.340461 0.436786,0.654093 -0.03323,1.534352 -0.815368,1.52705 -0.09549,-8.91e-4 -0.208047,-0.0097 -0.250128,-0.01966 z"
     id="path6" />
  <path
     style="fill:#ffffff;stroke-width:0.0408511"
     d="M 4.6774468,21.974046 C 4.5253793,21.957559 4.2005629,21.884695 4.0493742,21.833154 3.4002917,21.611881 2.8275913,21.157176 2.4563753,20.568367 2.3630891,20.4204 2.2166529,20.103183 2.1569763,19.919794 2.0841811,19.696091 2.0451687,19.49207 2.0222112,19.21502 1.9952654,18.889837 1.9952654,5.1101627 2.0222112,4.7849803 2.0567368,4.3683262 2.1339754,4.0778188 2.3066336,3.7152194 2.4616741,3.3896191 2.6163542,3.1730655 2.889566,2.8991081 3.3326379,2.4548271 3.7974631,2.2018179 4.4175893,2.0673892 L 4.626383,2.0221277 H 12 19.373617 l 0.208794,0.045262 c 0.622097,0.1348559 1.084214,0.386354 1.528023,0.831596 0.527158,0.5288601 0.80495,1.1328935 0.867354,1.8859822 0.02669,0.322088 0.02697,14.1046491 2.9e-4,14.4265011 -0.03363,0.405743 -0.11288,0.707128 -0.278925,1.060728 -0.160257,0.341278 -0.361798,0.619913 -0.64413,0.890527 -0.389383,0.373221 -0.844871,0.618375 -1.405661,0.756554 l -0.234894,0.05788 -7.332766,0.0023 c -4.0330211,0.0013 -7.364936,-0.0012 -7.4042552,-0.0054 z M 19.258592,19.977138 c 0.378794,-0.10082 0.678344,-0.428951 0.737418,-0.807776 0.02865,-0.183738 0.02865,-14.1549856 0,-14.3387237 -0.05935,-0.3806228 -0.356826,-0.7064779 -0.737418,-0.8077759 -0.165088,-0.04394 -14.3520961,-0.04394 -14.5171843,0 -0.3805914,0.101298 -0.6780639,0.4271531 -0.7374172,0.8077759 -0.028652,0.1837381 -0.028652,14.1549857 0,14.3387237 0.058585,0.375692 0.3551442,0.704181 0.728355,0.806774 0.1529078,0.04203 14.3684025,0.04301 14.5262465,0.001 z"
     id="path7" />
</svg>
