<?xml version="1.0" encoding="UTF-8" standalone="no"?>
<svg
   width="24"
   height="24"
   viewBox="0 0 24 24"
   fill="none"
   stroke="currentColor"
   stroke-width="2"
   stroke-linecap="round"
   stroke-linejoin="round"
   class="lucide lucide-pin-icon lucide-pin"
   version="1.1"
   id="svg2"
   sodipodi:docname="Pin_white.svg"
   inkscape:version="1.4.2 (f4327f4, 2025-05-13)"
   xmlns:inkscape="http://www.inkscape.org/namespaces/inkscape"
   xmlns:sodipodi="http://sodipodi.sourceforge.net/DTD/sodipodi-0.dtd"
   xmlns="http://www.w3.org/2000/svg"
   xmlns:svg="http://www.w3.org/2000/svg">
  <defs
     id="defs2" />
  <sodipodi:namedview
     id="namedview2"
     pagecolor="#ffffff"
     bordercolor="#000000"
     borderopacity="0.25"
     inkscape:showpageshadow="2"
     inkscape:pageopacity="0.0"
     inkscape:pagecheckerboard="0"
     inkscape:deskcolor="#d1d1d1"
     inkscape:zoom="48.958333"
     inkscape:cx="11.989787"
     inkscape:cy="12"
     inkscape:window-width="2560"
     inkscape:window-height="1377"
     inkscape:window-x="-8"
     inkscape:window-y="-8"
     inkscape:window-maximized="1"
     inkscape:current-layer="svg2" />
  <path
     d="M12 17v5"
     id="path1" />
  <path
     d="M9 10.76a2 2 0 0 1-1.11 1.79l-1.78.9A2 2 0 0 0 5 15.24V16a1 1 0 0 0 1 1h12a1 1 0 0 0 1-1v-.76a2 2 0 0 0-1.11-1.79l-1.78-.9A2 2 0 0 1 15 10.76V7a1 1 0 0 1 1-1 2 2 0 0 0 0-4H8a2 2 0 0 0 0 4 1 1 0 0 1 1 1z"
     id="path2" />
  <path
     style="fill:#ffffff;stroke-width:0.0408511"
     d="m 11.772212,22.959936 c -0.361677,-0.08773 -0.664858,-0.400389 -0.740347,-0.763494 -0.01552,-0.07465 -0.0225,-0.744876 -0.0225,-2.159559 v -2.05132 l -2.6706386,-0.0057 -2.6706383,-0.0057 -0.1634042,-0.04734 c -0.749618,-0.21719 -1.2878862,-0.781395 -1.4505531,-1.52045 -0.044232,-0.200961 -0.0634,-0.998375 -0.032773,-1.36333 0.083822,-0.998805 0.6030992,-1.855802 1.4220491,-2.346901 0.089872,-0.05389 0.611063,-0.325068 1.1582016,-0.602609 0.8934936,-0.453233 1.0059713,-0.515794 1.1045253,-0.614348 0.06035,-0.06035 0.1386175,-0.163931 0.1739271,-0.230178 0.1312179,-0.24619 0.1267502,-0.164952 0.1267502,-2.3048205 v -1.94419 L 7.8382979,6.9862274 C 7.2448197,6.9377339 6.7160679,6.7507114 6.2633787,6.4291702 6.0510379,6.2783465 5.7216535,5.9489621 5.5708298,5.7366213 5.3230884,5.3878331 5.1295027,4.926712 5.0532848,4.5038298 5.0071269,4.24773 5.0060372,3.7625211 5.0510601,3.5131915 5.1198014,3.1325135 5.272018,2.7283132 5.4587357,2.4306383 5.8343544,1.8318077 6.4291384,1.3671957 7.0884006,1.1576352 7.5518128,1.0103298 7.157512,1.0212766 12,1.0212766 c 4.128615,0 4.359982,0.0019 4.533727,0.037221 0.591364,0.120222 1.097618,0.3778574 1.505831,0.7663251 0.488915,0.4652664 0.789189,1.022757 0.909382,1.6883686 0.04502,0.2493296 0.04393,0.7345385 -0.0022,0.9906383 -0.07622,0.4228822 -0.269803,0.8840033 -0.517545,1.2327915 -0.150824,0.2123408 -0.480208,0.5417252 -0.692549,0.6925489 -0.452689,0.3215412 -0.981441,0.5085637 -1.574919,0.5570572 l -0.168511,0.013769 v 1.944221 c 0,2.1398688 -0.0045,2.0586308 0.126751,2.3048208 0.03531,0.06625 0.11342,0.169671 0.173578,0.229829 0.09811,0.09811 0.211952,0.161415 1.104526,0.614219 0.54733,0.277662 1.068677,0.548993 1.15855,0.602958 0.819485,0.492067 1.338227,1.348229 1.422049,2.34703 0.03063,0.364955 0.01146,1.162369 -0.03277,1.36333 -0.162667,0.739055 -0.700935,1.30326 -1.450553,1.52045 l -0.163404,0.04734 -2.670638,0.0057 -2.670639,0.0057 v 2.05132 c 0,1.414683 -0.007,2.084912 -0.0225,2.159559 -0.111764,0.537584 -0.666701,0.891864 -1.195923,0.763494 z m 6.238183,-7.441638 c -0.01012,-0.535013 -0.02572,-0.615242 -0.160538,-0.825335 -0.139652,-0.217629 -0.209893,-0.261485 -1.319006,-0.823547 -0.572009,-0.289874 -1.116555,-0.579827 -1.212983,-0.645872 -0.691455,-0.473586 -1.152783,-1.217168 -1.275311,-2.055583 -0.02796,-0.191283 -0.03133,-0.49744 -0.02594,-2.354344 l 0.0062,-2.1344681 0.04718,-0.1634042 c 0.143887,-0.4983348 0.428146,-0.895515 0.835948,-1.1680255 0.310945,-0.2077869 0.607953,-0.3032801 1.03619,-0.3331529 0.375187,-0.026172 0.541942,-0.088957 0.749798,-0.2823078 0.501735,-0.4667201 0.388517,-1.3025296 -0.219577,-1.6209822 -0.07818,-0.040939 -0.197285,-0.084869 -0.264689,-0.09762 -0.08957,-0.016946 -1.241078,-0.021559 -4.279149,-0.017144 l -4.1565961,0.00604 -0.1167572,0.044169 c -0.450679,0.1704913 -0.7253276,0.6352908 -0.6524365,1.104145 0.034213,0.2200682 0.1249745,0.3966209 0.2873826,0.5590288 0.2101617,0.210162 0.4497026,0.304186 0.7766263,0.3048403 0.3156629,6.315e-4 0.7198018,0.1300387 1.0143086,0.3247862 0.414107,0.2738351 0.697525,0.6626359 0.8414915,1.154382 l 0.054233,0.1852442 0.00676,2.1038298 c 0.00474,1.4740944 -1.573e-4,2.1645304 -0.016352,2.3066184 -0.097906,0.858985 -0.5717676,1.645418 -1.286336,2.134835 -0.098179,0.06724 -0.6355617,0.35337 -1.2129106,0.645806 -1.1077955,0.561115 -1.1780563,0.604981 -1.3177824,0.822725 -0.1348161,0.210093 -0.1504217,0.290322 -0.1605381,0.825335 l -0.00917,0.485106 H 12 18.019568 Z"
     id="path3" />
</svg>
