<?xml version="1.0" encoding="UTF-8" standalone="no"?>
<svg
   width="24"
   height="24"
   viewBox="0 0 24 24"
   fill="none"
   stroke="currentColor"
   stroke-width="2"
   stroke-linecap="round"
   stroke-linejoin="round"
   class="lucide lucide-play-icon lucide-play"
   version="1.1"
   id="svg1"
   sodipodi:docname="Play_white.svg"
   inkscape:version="1.4.2 (f4327f4, 2025-05-13)"
   xmlns:inkscape="http://www.inkscape.org/namespaces/inkscape"
   xmlns:sodipodi="http://sodipodi.sourceforge.net/DTD/sodipodi-0.dtd"
   xmlns="http://www.w3.org/2000/svg"
   xmlns:svg="http://www.w3.org/2000/svg">
  <defs
     id="defs1" />
  <sodipodi:namedview
     id="namedview1"
     pagecolor="#ffffff"
     bordercolor="#000000"
     borderopacity="0.25"
     inkscape:showpageshadow="2"
     inkscape:pageopacity="0.0"
     inkscape:pagecheckerboard="0"
     inkscape:deskcolor="#d1d1d1"
     inkscape:zoom="48.958333"
     inkscape:cx="11.989787"
     inkscape:cy="12"
     inkscape:window-width="2560"
     inkscape:window-height="1377"
     inkscape:window-x="-8"
     inkscape:window-y="-8"
     inkscape:window-maximized="1"
     inkscape:current-layer="svg1" />
  <path
     d="M5 5a2 2 0 0 1 3.008-1.728l11.997 6.998a2 2 0 0 1 .003 3.458l-12 7A2 2 0 0 1 5 19z"
     id="path1" />
  <path
     style="fill:#ffffff;stroke-width:0.0408511"
     d="M 6.5770213,21.959343 C 6.0962682,21.884523 5.6617565,21.707764 5.2493617,21.419254 5.0533144,21.2821 4.6652158,20.882616 4.532003,20.680851 c -0.2987888,-0.452548 -0.4609747,-0.911607 -0.5087537,-1.44 -0.024427,-0.270137 -0.024427,-14.211565 0,-14.4817021 0.047779,-0.5283934 0.2099649,-0.9874518 0.5087537,-1.44 C 4.6652158,3.1173838 5.0533144,2.7178998 5.2493617,2.5807457 5.8257059,2.1775371 6.4614894,1.9869747 7.1267038,2.0180529 7.577568,2.0391169 7.9812686,2.146367 8.3642553,2.3468301 8.6675822,2.5055975 20.578754,9.4576561 20.721702,9.559361 c 1.077783,0.766821 1.526787,2.138207 1.109498,3.388722 -0.204696,0.613425 -0.635135,1.176363 -1.170774,1.531165 C 20.455881,14.614736 8.4988518,21.588934 8.3015681,21.687821 8.1170433,21.780311 7.7791986,21.89341 7.5570677,21.93705 7.3257808,21.98249 6.8022606,21.9944 6.5770213,21.95934 Z M 7.346064,19.951037 c 0.057867,-0.02249 2.837844,-1.63455 6.177725,-3.582349 6.686595,-3.899583 6.230917,-3.619542 6.377453,-3.919326 0.144984,-0.296609 0.14544,-0.599552 0.0014,-0.900208 -0.140755,-0.293706 0.306297,-0.01913 -6.378807,-3.9178417 C 10.183908,5.6835127 7.4039312,4.0708432 7.346064,4.0476025 7.19116,3.9853893 6.8191486,3.9857483 6.652935,4.0482714 6.328359,4.170364 6.0852398,4.4514646 6.0141539,4.7868464 c -0.043148,0.2035725 -0.043148,14.2227346 0,14.4263076 0.072693,0.342966 0.341216,0.642838 0.664995,0.742632 0.061787,0.01904 0.121532,0.03817 0.132766,0.0425 0.061329,0.02364 0.4373515,-0.0096 0.5341491,-0.04725 z"
     id="path2" />
</svg>
