<?xml version="1.0" encoding="UTF-8" standalone="no"?>
<svg
   width="24"
   height="24"
   viewBox="0 0 24 24"
   fill="none"
   stroke="currentColor"
   stroke-width="2"
   stroke-linecap="round"
   stroke-linejoin="round"
   class="lucide lucide-refresh-cw-icon lucide-refresh-cw"
   version="1.1"
   id="svg4"
   sodipodi:docname="Refresh_white.svg"
   inkscape:version="1.4.2 (f4327f4, 2025-05-13)"
   xmlns:inkscape="http://www.inkscape.org/namespaces/inkscape"
   xmlns:sodipodi="http://sodipodi.sourceforge.net/DTD/sodipodi-0.dtd"
   xmlns="http://www.w3.org/2000/svg"
   xmlns:svg="http://www.w3.org/2000/svg">
  <defs
     id="defs4" />
  <sodipodi:namedview
     id="namedview4"
     pagecolor="#ffffff"
     bordercolor="#000000"
     borderopacity="0.25"
     inkscape:showpageshadow="2"
     inkscape:pageopacity="0.0"
     inkscape:pagecheckerboard="0"
     inkscape:deskcolor="#d1d1d1"
     inkscape:zoom="32.708333"
     inkscape:cx="12.015287"
     inkscape:cy="12"
     inkscape:window-width="1680"
     inkscape:window-height="987"
     inkscape:window-x="2552"
     inkscape:window-y="219"
     inkscape:window-maximized="1"
     inkscape:current-layer="svg4" />
  <path
     d="M3 12a9 9 0 0 1 9-9 9.75 9.75 0 0 1 6.74 2.74L21 8"
     id="path1" />
  <path
     d="M21 3v5h-5"
     id="path2" />
  <path
     d="M21 12a9 9 0 0 1-9 9 9.75 9.75 0 0 1-6.74-2.74L3 16"
     id="path3" />
  <path
     d="M8 16H3v5"
     id="path4" />
  <path
     style="fill:#ffffff;stroke-width:0.0611465"
     d="M 2.8232483,21.966263 C 2.5265586,21.906047 2.2518456,21.693802 2.118108,21.421469 L 2.033121,21.248408 2.024841,18.537888 C 2.016661,15.859407 2.017311,15.825364 2.079988,15.657838 2.16747,15.42402 2.3685463,15.208946 2.5944383,15.107571 l 0.1822353,-0.08178 2.7466965,0.0081 2.7466967,0.0081 0.1505093,0.07408 c 0.2010513,0.09895 0.3731796,0.276734 0.4715181,0.487006 0.10687,0.228514 0.1127991,0.559363 0.013897,0.775496 -0.092433,0.201998 -0.3176123,0.431778 -0.5070965,0.517459 -0.158422,0.07164 -0.1682076,0.07217 -1.5925235,0.08736 l -1.4331219,0.01529 0.4246523,0.412739 c 0.7967401,0.774387 1.4305088,1.230249 2.3516093,1.69148 0.8274891,0.414357 1.7271806,0.690791 2.7192821,0.835509 0.459092,0.06697 1.723414,0.07687 2.140127,0.01676 2.395774,-0.345585 4.361162,-1.56431 5.655283,-3.506805 0.843155,-1.265589 1.270245,-2.597899 1.347593,-4.203822 0.02656,-0.551458 0.0779,-0.71024 0.302137,-0.934478 0.479232,-0.479232 1.279513,-0.338398 1.574898,0.277153 0.24673,0.514159 -0.02044,2.501318 -0.518317,3.855179 -0.194044,0.527655 -0.596981,1.351375 -0.888408,1.816159 -2.127747,3.393458 -5.96186,5.178211 -9.922994,4.619084 C 8.6414748,21.606959 6.8521687,20.83657 5.33404,19.627975 5.0577706,19.408035 4.3601938,18.772076 4.1121046,18.513975 l -0.122293,-0.127228 -0.015287,1.446096 -0.015287,1.446095 -0.082385,0.156156 C 3.6752312,21.817293 3.219984,22.046785 2.8232483,21.966263 Z"
     id="path5" />
  <path
     style="fill:#ffffff;stroke-width:0.0611465"
     d="M 2.7025621,12.934985 C 2.4072885,12.842568 2.1651474,12.594195 2.0615552,12.27748 2.0163488,12.139269 2.0113185,12.042581 2.0274531,11.622008 2.1922444,7.3265042 5.0886879,3.6166062 9.2178344,2.4122376 10.733389,1.9701882 12.427087,1.9019305 14.017834,2.2187927 c 1.728617,0.3443243 3.258917,1.054062 4.652404,2.157738 0.271295,0.2148718 0.967595,0.8492947 1.21766,1.1094511 l 0.122293,0.1272281 0.01529,-1.4460954 0.01529,-1.4460954 0.08239,-0.1561559 c 0.109391,-0.2073448 0.351945,-0.4218838 0.552919,-0.4890574 0.471043,-0.1574416 0.987332,0.057807 1.205823,0.5027253 l 0.08499,0.1730613 0.0083,2.7105199 c 0.0082,2.6784804 0.0075,2.712524 -0.05515,2.8800498 -0.08748,0.2338175 -0.288558,0.4488924 -0.51445,0.5502668 l -0.182236,0.081782 -2.746696,-0.00812 -2.746697,-0.00812 -0.150509,-0.074076 C 15.496647,8.8431436 15.374861,8.7557525 15.308791,8.6896831 15.02167,8.4025614 14.939146,7.9439966 15.111454,7.5931258 c 0.09882,-0.2012359 0.303638,-0.4016417 0.506105,-0.4952132 0.138391,-0.063958 0.188664,-0.066553 1.576072,-0.081352 L 18.626753,7.0012739 18.194256,6.5806071 C 17.416216,5.8238501 16.774686,5.3599946 15.898089,4.9203736 15.027976,4.4840043 14.149826,4.2112333 13.13121,4.0609258 12.619924,3.9854801 11.381588,3.9848189 10.884076,4.059726 9.4106987,4.281563 8.1079854,4.8452752 6.9707006,5.7531284 6.6504663,6.0087598 6.0368946,6.6170253 5.7887664,6.9248408 4.6649561,8.3189846 4.0778571,9.8940642 3.9882068,11.755414 c -0.02656,0.551458 -0.077898,0.71024 -0.3021365,0.934478 -0.2584926,0.258493 -0.6382949,0.35314 -0.9835082,0.245093 z"
     id="path6" />
</svg>
