<?xml version="1.0" encoding="UTF-8" standalone="no"?>
<svg
   width="24"
   height="24"
   viewBox="0 0 24 24"
   fill="none"
   stroke="currentColor"
   stroke-width="2"
   stroke-linecap="round"
   stroke-linejoin="round"
   class="lucide lucide-save-icon lucide-save"
   version="1.1"
   id="svg3"
   sodipodi:docname="Save_white.svg"
   inkscape:version="1.4.2 (f4327f4, 2025-05-13)"
   xmlns:inkscape="http://www.inkscape.org/namespaces/inkscape"
   xmlns:sodipodi="http://sodipodi.sourceforge.net/DTD/sodipodi-0.dtd"
   xmlns="http://www.w3.org/2000/svg"
   xmlns:svg="http://www.w3.org/2000/svg">
  <defs
     id="defs3" />
  <sodipodi:namedview
     id="namedview3"
     pagecolor="#ffffff"
     bordercolor="#000000"
     borderopacity="0.25"
     inkscape:showpageshadow="2"
     inkscape:pageopacity="0.0"
     inkscape:pagecheckerboard="0"
     inkscape:deskcolor="#d1d1d1"
     inkscape:zoom="48.958333"
     inkscape:cx="11.989787"
     inkscape:cy="12"
     inkscape:window-width="2560"
     inkscape:window-height="1377"
     inkscape:window-x="-8"
     inkscape:window-y="-8"
     inkscape:window-maximized="1"
     inkscape:current-layer="svg3" />
  <path
     d="M15.2 3a2 2 0 0 1 1.4.6l3.8 3.8a2 2 0 0 1 .6 1.4V19a2 2 0 0 1-2 2H5a2 2 0 0 1-2-2V5a2 2 0 0 1 2-2z"
     id="path1" />
  <path
     d="M17 21v-7a1 1 0 0 0-1-1H8a1 1 0 0 0-1 1v7"
     id="path2" />
  <path
     d="M7 3v4a1 1 0 0 0 1 1h7"
     id="path3" />
  <path
     style="fill:#ffffff;stroke-width:0.0408511"
     d="M 4.5651064,21.955858 C 4.2112308,21.901007 3.8316511,21.771404 3.5438298,21.607156 2.7515957,21.155061 2.2053198,20.376086 2.0491223,19.475745 2.0136014,19.270998 2.0119149,18.932142 2.0119149,12 c 0,-6.9321416 0.00169,-7.2709979 0.037207,-7.4757447 C 2.1831583,3.7516552 2.5982761,3.0735373 3.2254803,2.6026095 3.5699324,2.3439822 3.9790406,2.163084 4.452766,2.0599321 4.6192992,2.0236701 4.8493107,2.0221277 10.090213,2.0221277 h 5.46383 l 0.208103,0.046088 c 0.414327,0.091759 0.814988,0.2679609 1.156367,0.5085444 0.123672,0.087157 0.697808,0.6468 2.196274,2.1408351 1.115855,1.1125569 2.086718,2.0917667 2.157473,2.176022 0.420841,0.5011433 0.657598,1.0851712 0.706783,1.743484 0.0146,0.1954319 0.01945,1.9668348 0.015,5.4769418 -0.0074,5.823065 0.0066,5.312158 -0.159134,5.813357 -0.153917,0.465464 -0.376294,0.825883 -0.723893,1.173255 -0.438131,0.437846 -0.889885,0.684029 -1.527333,0.832318 l -0.189639,0.04412 -7.322554,0.0036 c -6.1757652,0.0031 -7.3513424,-8.3e-4 -7.5063826,-0.02486 z m 1.4401675,-4.966922 c 1.064e-4,-1.915825 0.00777,-3.085002 0.020995,-3.201702 0.087374,-0.771181 0.6126718,-1.422536 1.3484356,-1.672025 C 7.6958028,12.006328 7.524655,12.010213 12,12.010213 c 3.309429,0 4.198106,0.0054 4.318912,0.02634 0.879139,0.152246 1.55469,0.866931 1.654819,1.750681 0.01322,0.1167 0.02089,1.285877 0.02099,3.201702 l 1.68e-4,3.017873 h 0.567623 c 0.626168,0 0.712264,-0.01165 0.925204,-0.125142 0.12884,-0.06867 0.30463,-0.234481 0.379249,-0.357717 0.02626,-0.04336 0.06846,-0.138588 0.09379,-0.21161 l 0.04605,-0.132766 V 13.909787 8.64 L 19.959694,8.5095509 C 19.933782,8.437804 19.881905,8.3321019 19.844413,8.2746573 19.806522,8.2166018 18.883961,7.2805914 17.767272,6.1672359 16.244502,4.6490118 15.733211,4.151136 15.654641,4.1100357 15.418218,3.986362 15.652377,3.9931915 11.648475,3.9931915 H 7.986383 v 1.5114894 1.5114893 h 3.580974 c 3.232566,0 3.591767,0.0032 3.691914,0.032891 0.232811,0.069023 0.397599,0.1845371 0.540847,0.3791252 0.220453,0.2994638 0.246502,0.7049294 0.06693,1.0418367 -0.07775,0.1458759 -0.278729,0.3392469 -0.42901,0.4127727 -0.24238,0.118587 -0.08277,0.1139102 -3.900555,0.1142964 C 9.2548635,8.997323 7.9593606,8.9900374 7.8246354,8.976212 7.0044212,8.8920423 6.3477318,8.3588123 6.1009991,7.5766243 6.0135429,7.2993723 6.0051064,7.1171553 6.0051064,5.5054858 V 3.9931915 L 5.4280851,3.9934339 C 4.7927336,3.9937009 4.7303416,4.0021065 4.5160927,4.1163001 4.2548015,4.2555666 4.0517664,4.5391866 4.004719,4.8306383 c -0.029982,0.1857336 -0.029982,14.1529897 0,14.3387237 0.060937,0.377494 0.3593152,0.703779 0.7362988,0.805163 0.083173,0.02237 0.2509548,0.02992 0.6870673,0.03094 l 0.5770213,0.0013 z m 10.0083431,0.0051 V 13.981277 H 12 7.986383 v 3.012766 3.012766 H 12 16.013617 Z"
     id="path4" />
</svg>
