<?xml version="1.0" encoding="UTF-8" standalone="no"?>
<svg
   width="24"
   height="24"
   viewBox="0 0 24 24"
   fill="none"
   stroke="currentColor"
   stroke-width="2"
   stroke-linecap="round"
   stroke-linejoin="round"
   class="lucide lucide-settings-icon lucide-settings"
   version="1.1"
   id="svg1"
   sodipodi:docname="settings_white.svg"
   inkscape:version="1.4.2 (f4327f4, 2025-05-13)"
   xmlns:inkscape="http://www.inkscape.org/namespaces/inkscape"
   xmlns:sodipodi="http://sodipodi.sourceforge.net/DTD/sodipodi-0.dtd"
   xmlns="http://www.w3.org/2000/svg"
   xmlns:svg="http://www.w3.org/2000/svg">
  <defs
     id="defs1" />
  <sodipodi:namedview
     id="namedview1"
     pagecolor="#ffffff"
     bordercolor="#000000"
     borderopacity="0.25"
     inkscape:showpageshadow="2"
     inkscape:pageopacity="0.0"
     inkscape:pagecheckerboard="0"
     inkscape:deskcolor="#d1d1d1"
     showgrid="false"
     inkscape:zoom="48.958333"
     inkscape:cx="11.989787"
     inkscape:cy="12"
     inkscape:window-width="2560"
     inkscape:window-height="1377"
     inkscape:window-x="-8"
     inkscape:window-y="-8"
     inkscape:window-maximized="1"
     inkscape:current-layer="svg1" />
  <path
     d="M9.671 4.136a2.34 2.34 0 0 1 4.659 0 2.34 2.34 0 0 0 3.319 1.915 2.34 2.34 0 0 1 2.33 4.033 2.34 2.34 0 0 0 0 3.831 2.34 2.34 0 0 1-2.33 4.033 2.34 2.34 0 0 0-3.319 1.915 2.34 2.34 0 0 1-4.659 0 2.34 2.34 0 0 0-3.32-1.915 2.34 2.34 0 0 1-2.33-4.033 2.34 2.34 0 0 0 0-3.831A2.34 2.34 0 0 1 6.35 6.051a2.34 2.34 0 0 0 3.319-1.915"
     id="path1" />
  <circle
     cx="12"
     cy="12"
     r="3"
     id="circle1" />
  <path
     style="fill:#ffffff;stroke-width:0.0408511"
     d="M 11.652766,22.955951 C 10.772561,22.82372 10.159937,22.51729 9.5897872,21.924067 9.1313574,21.447086 8.8224429,20.826049 8.7209274,20.177324 8.6202544,19.533983 8.5667079,19.402375 8.2932931,19.12627 8.1528018,18.984397 8.0855978,18.933996 7.9455319,18.865458 7.7160515,18.753167 7.521505,18.713052 7.2695871,18.726082 7.0665772,18.736582 6.99197,18.757841 6.5368085,18.934887 5.6964492,19.261764 4.7125442,19.203842 3.8769216,18.778301 3.5436231,18.608569 3.3182253,18.443175 3.0320051,18.158315 2.5654206,17.693946 2.2693277,17.149047 2.1191942,16.478472 c -0.038656,-0.172659 -0.044626,-0.260803 -0.044626,-0.658898 0,-0.398807 0.00593,-0.486078 0.044861,-0.660024 0.1841451,-0.8228 0.601334,-1.481665 1.2653099,-1.998301 0.265323,-0.206445 0.3962934,-0.353448 0.4977649,-0.558696 0.1885291,-0.38134 0.1885291,-0.823766 0,-1.205106 C 3.7845228,11.199258 3.6446547,11.038753 3.4238462,10.871115 2.7416182,10.353168 2.2984851,9.6621733 2.1240265,8.8442553 2.0613275,8.5503023 2.045861,8.0013226 2.0919993,7.7074576 2.3167257,6.2761238 3.3588573,5.1928686 4.7845706,4.9086344 4.9724554,4.8711771 5.081656,4.8628906 5.3821277,4.8632901 5.8978491,4.8639758 6.2178528,4.9282727 6.7052117,5.1291319 7.0748538,5.2814753 7.3029853,5.3113017 7.6144782,5.2480114 8.005995,5.1684613 8.3641642,4.8948245 8.535083,4.5446809 8.6277441,4.3548558 8.6567935,4.242921 8.7194059,3.8344357 8.9286426,2.4693695 9.9651176,1.3929425 11.363451,1.0884726 11.540869,1.0498421 11.633448,1.0432675 12,1.0432675 c 0.369478,0 0.458665,0.00643 0.643404,0.0464 0.886293,0.1917489 1.633871,0.691213 2.114112,1.4124602 0.306756,0.460699 0.471424,0.9079179 0.552054,1.4993116 0.05699,0.4179812 0.179032,0.6734958 0.438695,0.918448 0.298303,0.2814045 0.746096,0.4124533 1.155218,0.3380805 0.06666,-0.012118 0.249292,-0.072926 0.405852,-0.1351294 0.516017,-0.2050215 0.974216,-0.2889578 1.449313,-0.2654954 1.534344,0.075772 2.78077,1.1393662 3.122158,2.6641853 0.03875,0.1730788 0.04457,0.2598328 0.04422,0.6588972 -3.52e-4,0.397295 -0.0065,0.4868126 -0.04519,0.6605705 -0.185749,0.8337504 -0.625688,1.519076 -1.303684,2.030845 -0.220187,0.166203 -0.360428,0.326914 -0.458658,0.525606 -0.240167,0.485788 -0.164344,1.094454 0.18499,1.485013 0.05731,0.06408 0.198062,0.189532 0.312775,0.278789 0.663976,0.516636 1.081164,1.175501 1.265309,1.998301 0.03893,0.173946 0.04486,0.261217 0.04486,0.660024 0,0.506192 -0.02196,0.657065 -0.152397,1.046983 -0.434683,1.299416 -1.636153,2.207236 -3.011468,2.275438 -0.423066,0.02098 -0.91284,-0.05715 -1.298376,-0.207108 -0.455161,-0.177046 -0.529768,-0.198305 -0.732778,-0.208805 -0.251918,-0.01303 -0.446464,0.02708 -0.675945,0.139376 -0.140118,0.06856 -0.207202,0.118887 -0.347681,0.260812 -0.272246,0.275052 -0.327548,0.410948 -0.427714,1.051054 -0.06968,0.445256 -0.247476,0.903253 -0.500757,1.28991 -0.140713,0.214811 -0.204344,0.292998 -0.404928,0.497556 -0.473385,0.482765 -1.025281,0.786597 -1.699345,0.935532 -0.179458,0.03965 -0.298684,0.05117 -0.592341,0.05724 -0.202213,0.0042 -0.395234,0.0035 -0.428936,-0.0016 z m 0.783005,-2.035935 c 0.206683,-0.07235 0.353781,-0.16473 0.512074,-0.321585 0.245588,-0.243358 0.342929,-0.463157 0.409048,-0.923647 0.08758,-0.609943 0.273325,-1.082834 0.609937,-1.552842 0.479336,-0.669292 1.211745,-1.140811 2.04324,-1.315421 0.225134,-0.04728 0.308106,-0.05447 0.636739,-0.05521 0.485959,-0.0011 0.860741,0.06734 1.235744,0.225612 0.383229,0.161747 0.453946,0.179233 0.725107,0.179295 0.419328,9.6e-5 0.668345,-0.102531 0.960527,-0.39586 0.27674,-0.277827 0.391119,-0.556465 0.389675,-0.94928 -0.0017,-0.469209 -0.179386,-0.805143 -0.592396,-1.12015 -0.630991,-0.481263 -1.069639,-1.124093 -1.258444,-1.844221 -0.281072,-1.072049 -0.01605,-2.19522 0.717571,-3.0410562 0.146935,-0.169411 0.314494,-0.3212047 0.596332,-0.5402265 0.359656,-0.2794954 0.535155,-0.6313836 0.536891,-1.076506 9.35e-4,-0.2397616 -0.03538,-0.4038471 -0.135219,-0.611048 -0.258908,-0.5373038 -0.889274,-0.8420021 -1.482005,-0.7163528 -0.07387,0.015658 -0.234717,0.069838 -0.357447,0.1204 C 17.504362,7.179166 17.159441,7.2491765 16.667234,7.2490174 16.282384,7.248893 16.074177,7.2212289 15.744704,7.1264421 14.86066,6.8721095 14.11652,6.2575323 13.696911,5.4351911 13.519699,5.0878948 13.419971,4.7636372 13.358433,4.3346627 13.335521,4.1749387 13.302007,3.9982979 13.283957,3.9421277 13.220274,3.7439416 13.107994,3.5602772 12.959947,3.4121202 12.69747,3.1494481 12.430801,3.0324057 12.061277,3.0176896 11.80484,3.0074772 11.63947,3.0375906 11.4336,3.1319884 11.005004,3.3285132 10.728761,3.7116674 10.661818,4.2024652 10.620092,4.5083763 10.556805,4.7949863 10.484999,5.0032199 10.129761,6.0334013 9.2964603,6.8269074 8.2552957,7.1264421 7.9249926,7.2214676 7.7178144,7.2489189 7.332766,7.2486785 6.8281538,7.2483632 6.5044326,7.1829051 6.0198947,6.9832085 5.6520556,6.8316082 5.4320526,6.8023425 5.1132862,6.8626074 4.8513277,6.9121326 4.6388031,7.029484 4.4323404,7.2386108 4.1395028,7.5352269 4.0338964,7.8113445 4.0486885,8.2417021 c 0.00645,0.1876843 0.018842,0.2650033 0.061651,0.3847068 0.1024385,0.2864392 0.2560285,0.4835258 0.5466818,0.7015018 0.6115214,0.4586118 1.045758,1.0999343 1.2359567,1.8253803 0.2154113,0.821609 0.1125197,1.677031 -0.2916411,2.424654 -0.2277718,0.421335 -0.5540897,0.796236 -0.970974,1.115536 -0.4096759,0.313779 -0.5868514,0.649263 -0.5893168,1.115881 -0.00206,0.389996 0.1138478,0.672384 0.3907671,0.952027 0.1405138,0.141896 0.2076728,0.19226 0.3477613,0.260794 0.3918393,0.191693 0.770026,0.193512 1.210464,0.0058 0.239282,-0.10197 0.4682761,-0.174057 0.7345891,-0.231248 0.1757186,-0.03774 0.2746072,-0.04507 0.6081384,-0.04512 0.3538509,-5.3e-5 0.4271855,0.006 0.6571643,0.05459 0.9038494,0.190826 1.6496423,0.699756 2.1459657,1.46441 0.273903,0.421984 0.426492,0.844171 0.506623,1.401727 0.0224,0.155859 0.05932,0.33968 0.08205,0.408493 0.140986,0.426862 0.527122,0.77684 0.96827,0.8776 0.197145,0.04503 0.557793,0.02637 0.742933,-0.03844 z"
     id="path2" />
  <path
     style="fill:#ffffff;stroke-width:0.0408511"
     d="M 11.520866,15.960737 C 10.965955,15.888957 10.368466,15.679056 9.9120955,15.395568 9.114849,14.900335 8.515138,14.143698 8.2223157,13.263624 7.9404559,12.416498 7.9405715,11.583145 8.2226666,10.735326 8.7085556,9.2750163 9.994204,8.2297936 11.53989,8.0384476 c 0.222306,-0.02752 0.697914,-0.02752 0.92022,0 1.190365,0.1473595 2.239501,0.8006762 2.885667,1.7969601 0.467745,0.7211853 0.700852,1.6296013 0.630142,2.4556563 -0.03186,0.372165 -0.08465,0.631199 -0.198235,0.97256 -0.486103,1.460977 -1.771852,2.506578 -3.317574,2.697928 -0.199521,0.0247 -0.745661,0.02423 -0.939244,-8.15e-4 z m 0.860316,-1.987951 c 1.018669,-0.196528 1.730088,-1.1577 1.615546,-2.182708 -0.09442,-0.844989 -0.677452,-1.519445 -1.506515,-1.742762 C 12.37655,10.0167 12.276037,10.008803 12,10.008803 c -0.276037,0 -0.37655,0.0079 -0.490213,0.03851 -0.758346,0.204269 -1.313843,0.786463 -1.48311,1.554386 -0.034937,0.158503 -0.034937,0.638093 0,0.796596 0.03925,0.178083 0.09967,0.346701 0.186636,0.520851 0.261742,0.524167 0.801591,0.933162 1.388389,1.051859 0.179809,0.03637 0.595259,0.03732 0.77948,0.0018 z"
     id="path3" />
</svg>
