<?xml version="1.0" encoding="UTF-8" standalone="no"?>
<svg
   width="24"
   height="24"
   viewBox="0 0 24 24"
   fill="none"
   stroke="currentColor"
   stroke-width="2"
   stroke-linecap="round"
   stroke-linejoin="round"
   class="lucide lucide-type-icon lucide-type"
   version="1.1"
   id="svg3"
   sodipodi:docname="Text_white.svg"
   inkscape:version="1.4.2 (f4327f4, 2025-05-13)"
   xmlns:inkscape="http://www.inkscape.org/namespaces/inkscape"
   xmlns:sodipodi="http://sodipodi.sourceforge.net/DTD/sodipodi-0.dtd"
   xmlns="http://www.w3.org/2000/svg"
   xmlns:svg="http://www.w3.org/2000/svg">
  <defs
     id="defs3" />
  <sodipodi:namedview
     id="namedview3"
     pagecolor="#ffffff"
     bordercolor="#000000"
     borderopacity="0.25"
     inkscape:showpageshadow="2"
     inkscape:pageopacity="0.0"
     inkscape:pagecheckerboard="0"
     inkscape:deskcolor="#d1d1d1"
     inkscape:zoom="48.958333"
     inkscape:cx="11.989787"
     inkscape:cy="12"
     inkscape:window-width="2560"
     inkscape:window-height="1377"
     inkscape:window-x="-8"
     inkscape:window-y="-8"
     inkscape:window-maximized="1"
     inkscape:current-layer="svg3" />
  <path
     d="M12 4v16"
     id="path1" />
  <path
     d="M4 7V5a1 1 0 0 1 1-1h14a1 1 0 0 1 1 1v2"
     id="path2" />
  <path
     d="M9 20h6"
     id="path3" />
  <path
     style="fill:#ffffff;stroke-width:0.0408511"
     d="M 8.775185,20.964518 C 8.2862,20.849721 7.938884,20.329856 8.0258947,19.842974 c 0.053236,-0.297889 0.2508871,-0.573655 0.5102335,-0.711886 0.2222543,-0.11846 0.290458,-0.124384 1.4366378,-0.124776 l 1.036596,-3.55e-4 V 12 4.9940426 H 7.9965957 4.9838298 v 1.0804015 c 0,1.2238826 8.78e-5,1.2231003 -0.1650577,1.4704075 C 4.7119133,7.704874 4.6001173,7.8010668 4.4221277,7.8861367 4.2159553,7.9846764 4.0318452,8.0103985 3.8289134,7.9690149 3.4547116,7.8927043 3.1890007,7.662116 3.0604478,7.3021277 3.0135764,7.1708732 3.0129625,7.1575018 3.0065248,6.1276596 2.9995769,5.0162051 3.0145488,4.7046124 3.0861521,4.4704715 3.2163217,4.0448199 3.4354763,3.7118556 3.7499503,3.4619546 4.0250606,3.2433345 4.2840844,3.1215102 4.6193787,3.0530441 4.8134881,3.0134075 4.9309746,3.012766 11.995846,3.012766 c 6.464565,0 7.196189,0.00322 7.349729,0.032346 0.42575,0.080763 0.762815,0.2583087 1.059774,0.558224 0.340274,0.3436614 0.528088,0.7513224 0.572874,1.2434579 0.01324,0.1455185 0.01903,0.6470451 0.01479,1.2808659 -0.0067,0.9968866 -0.0088,1.0471925 -0.05018,1.1693237 -0.0571,0.1686577 -0.14939,0.3089527 -0.284385,0.4323303 C 20.444139,7.925184 20.136911,8.0217475 19.866025,7.9783782 19.698198,7.9515088 19.474163,7.8490899 19.349549,7.7422691 19.231578,7.6411421 19.106121,7.4460719 19.057211,7.2877195 19.018299,7.1617383 19.01617,7.0988042 19.01617,6.0744441 V 4.9940426 H 16.003404 12.990638 V 12 19.005957 l 1.036596,3.55e-4 c 1.14618,3.92e-4 1.214383,0.0063 1.436638,0.124776 0.336108,0.179144 0.554211,0.573268 0.521065,0.941591 -0.0381,0.423341 -0.33457,0.778167 -0.737992,0.883245 -0.105645,0.02752 -0.500168,0.03106 -3.256343,0.02926 -1.807411,-0.0012 -3.1697247,-0.0099 -3.215417,-0.02066 z"
     id="path4" />
</svg>
