<?xml version="1.0" encoding="UTF-8" standalone="no"?>
<svg
   width="24"
   height="24"
   viewBox="0 0 24 24"
   fill="none"
   stroke="currentColor"
   stroke-width="2"
   stroke-linecap="round"
   stroke-linejoin="round"
   class="lucide lucide-square-play-icon lucide-square-play"
   version="1.1"
   id="svg1"
   sodipodi:docname="ToolSettings_white.svg"
   inkscape:version="1.4.2 (f4327f4, 2025-05-13)"
   xmlns:inkscape="http://www.inkscape.org/namespaces/inkscape"
   xmlns:sodipodi="http://sodipodi.sourceforge.net/DTD/sodipodi-0.dtd"
   xmlns="http://www.w3.org/2000/svg"
   xmlns:svg="http://www.w3.org/2000/svg">
  <defs
     id="defs1" />
  <sodipodi:namedview
     id="namedview1"
     pagecolor="#ffffff"
     bordercolor="#000000"
     borderopacity="0.25"
     inkscape:showpageshadow="2"
     inkscape:pageopacity="0.0"
     inkscape:pagecheckerboard="0"
     inkscape:deskcolor="#d1d1d1"
     inkscape:zoom="34.618769"
     inkscape:cx="11.987717"
     inkscape:cy="10.875603"
     inkscape:window-width="2560"
     inkscape:window-height="1377"
     inkscape:window-x="-8"
     inkscape:window-y="-8"
     inkscape:window-maximized="1"
     inkscape:current-layer="layer1" />
  <rect
     x="3"
     y="3"
     width="18"
     height="18"
     rx="2"
     id="rect1" />
  <path
     d="M9 9.003a1 1 0 0 1 1.517-.859l4.997 2.997a1 1 0 0 1 0 1.718l-4.997 2.997A1 1 0 0 1 9 14.996z"
     id="path1" />
  <path
     style="fill:#ffffff;stroke-width:0.0408511"
     d="M 9.6612818,16.96045 C 9.5994975,16.950218 9.4592126,16.911123 9.3495376,16.873573 8.6577243,16.636708 8.148582,16.022012 8.036658,15.288511 c -0.044136,-0.289252 -0.044136,-6.2877698 0,-6.5770216 0.1276648,-0.8366603 0.7525576,-1.4902317 1.5902852,-1.6632691 0.1987467,-0.041052 0.5439628,-0.041052 0.7427098,0 0.36538,0.075471 0.370115,0.078095 3.140074,1.7397803 1.450161,0.8699444 2.67622,1.6140664 2.724577,1.6536054 0.344038,0.281302 0.597302,0.678306 0.701763,1.100046 0.0638,0.257567 0.0638,0.659129 0,0.916696 -0.104461,0.42174 -0.357725,0.818744 -0.701763,1.100046 -0.04836,0.03954 -1.274416,0.783661 -2.724577,1.653605 -2.769959,1.661686 -2.774694,1.664309 -3.140074,1.739781 -0.16901,0.03491 -0.5237147,0.03925 -0.7083712,0.0087 z m 2.8532192,-3.454067 c 1.374027,-0.822894 2.49823,-1.500766 2.49823,-1.506383 0,-0.0122 -4.990198,-3.0025532 -5.010553,-3.0025532 -0.00775,0 -0.014093,1.3511492 -0.014093,3.0025532 0,1.651404 0.00634,3.002553 0.014093,3.002553 0.0078,0 1.138296,-0.673276 2.512323,-1.49617 z"
     id="path2" />
  <path
     style="fill:#ffffff;stroke-width:0.0408511"
     d="M 4.6774468,21.974046 C 4.5253793,21.957559 4.2005629,21.884695 4.0493742,21.833154 3.4002917,21.611881 2.8275913,21.157176 2.4563753,20.568367 2.3630891,20.4204 2.2166529,20.103183 2.1569763,19.919794 2.0841811,19.696091 2.0451687,19.49207 2.0222112,19.21502 1.9952654,18.889837 1.9952654,5.1101627 2.0222112,4.7849803 2.0567368,4.3683262 2.1339754,4.0778188 2.3066336,3.7152194 2.4616741,3.3896191 2.6163542,3.1730655 2.889566,2.8991081 3.3326379,2.4548271 3.7974631,2.2018179 4.4175893,2.0673892 L 4.626383,2.0221277 H 12 19.373617 l 0.208794,0.045262 c 0.622097,0.1348559 1.084214,0.386354 1.528023,0.831596 0.527158,0.5288601 0.80495,1.1328935 0.867354,1.8859822 0.02669,0.322088 0.02697,14.1046491 2.9e-4,14.4265011 -0.03363,0.405743 -0.11288,0.707128 -0.278925,1.060728 -0.160257,0.341278 -0.361798,0.619913 -0.64413,0.890527 -0.389383,0.373221 -0.844871,0.618375 -1.405661,0.756554 l -0.234894,0.05788 -7.332766,0.0023 c -4.0330211,0.0013 -7.364936,-0.0012 -7.4042552,-0.0054 z M 19.258592,19.977138 c 0.378794,-0.10082 0.678344,-0.428951 0.737418,-0.807776 0.02865,-0.183738 0.02865,-14.1549856 0,-14.3387237 -0.05935,-0.3806228 -0.356826,-0.7064779 -0.737418,-0.8077759 -0.165088,-0.04394 -14.3520961,-0.04394 -14.5171843,0 -0.3805914,0.101298 -0.6780639,0.4271531 -0.7374172,0.8077759 -0.028652,0.1837381 -0.028652,14.1549857 0,14.3387237 0.058585,0.375692 0.3551442,0.704181 0.728355,0.806774 0.1529078,0.04203 14.3684025,0.04301 14.5262465,0.001 z"
     id="path3" />
  <rect
     style="fill:#ffffff;fill-opacity:1;stroke:none;stroke-opacity:1"
     id="rect6"
     width="11.092249"
     height="11.236679"
     x="5.8638711"
     y="6.2105041" />
  <g
     inkscape:groupmode="layer"
     id="layer1"
     inkscape:label="Layer 1"
     transform="matrix(0.527033,0,0,0.52441674,5.7037202,5.7271762)">
    <path
       d="m 9.2017772,3.4099751 a 2.8156071,2.5507481 0 0 1 5.6059458,0 2.8156071,2.5507481 0 0 0 3.99359,2.0874712 2.8156071,2.5507481 0 0 1 2.803574,4.3962253 2.8156071,2.5507481 0 0 0 0,4.1760324 2.8156071,2.5507481 0 0 1 -2.803574,4.396226 2.8156071,2.5507481 0 0 0 -3.99359,2.08747 2.8156071,2.5507481 0 0 1 -5.6059458,0 2.8156071,2.5507481 0 0 0 -3.994793,-2.08747 2.8156071,2.5507481 0 0 1 -2.8035746,-4.396226 2.8156071,2.5507481 0 0 0 0,-4.1760324 A 2.8156071,2.5507481 0 0 1 5.205781,5.4974463 2.8156071,2.5507481 0 0 0 9.1993707,3.4099751"
       id="path1-1"
       style="stroke-width:2.29052" />
    <ellipse
       cx="12.004148"
       cy="11.982233"
       id="circle1"
       rx="3.6097527"
       ry="3.2701898"
       style="stroke-width:2.29052" />
    <path
       style="fill:#ffffff;stroke-width:0.0467852"
       d="M 11.586339,23.924912 C 10.527231,23.780773 9.7900912,23.446744 9.1040578,22.800095 8.5524518,22.280154 8.1807501,21.603186 8.0586014,20.896033 7.9374666,20.194751 7.8730368,20.05129 7.5440501,19.750319 7.3750039,19.595668 7.2941405,19.540728 7.1256061,19.466017 6.8494837,19.343613 6.6153954,19.299885 6.312275,19.314089 6.0680031,19.325533 5.978232,19.348707 5.4305585,19.541698 4.4193955,19.898015 3.2355108,19.834877 2.2300472,19.37101 1.8290055,19.185991 1.5577953,19.005701 1.2134007,18.695187 0.65198252,18.188995 0.29570845,17.59502 0.11506013,16.86405 c -0.0465128,-0.188208 -0.0536962,-0.28429 -0.0536962,-0.71824 0,-0.434725 0.0071333,-0.529854 0.05397882,-0.719468 0.22157278,-0.896904 0.72355561,-1.615109 1.52248525,-2.178275 0.3192501,-0.225037 0.4768404,-0.385281 0.598936,-0.609013 0.2268478,-0.415685 0.2268478,-0.897957 0,-1.313642 C 2.1188683,11.109374 1.9505718,10.934413 1.6848839,10.751677 0.86399239,10.187082 0.33079213,9.4338538 0.12087466,8.5422714 0.04543201,8.221844 0.02682193,7.6234214 0.08233783,7.3030899 0.35274012,5.7428455 1.6066859,4.5620287 3.3221767,4.2521955 3.5482492,4.2113646 3.679645,4.2023318 4.0411878,4.2027674 4.66173,4.2035148 5.0467747,4.2736026 5.6331898,4.4925517 6.0779619,4.6586157 6.3524614,4.6911283 6.7272655,4.6221379 7.1983585,4.5354232 7.6293258,4.2371419 7.8349841,3.8554632 7.9464786,3.6485418 7.9814323,3.5265258 8.0567707,3.081251 8.308535,1.5932424 9.5556741,0.41986881 11.238221,0.08797735 c 0.213478,-0.04210969 0.324874,-0.04927642 0.765928,-0.04927642 0.444574,0 0.551888,0.0070091 0.774176,0.05057894 1.066433,0.20901843 1.965957,0.75346591 2.543808,1.53967103 0.369104,0.502191 0.567241,0.989688 0.664258,1.6343445 0.06857,0.455626 0.215421,0.7341531 0.527861,1.0011665 0.358933,0.3067487 0.89774,0.4496002 1.390017,0.3685292 0.0802,-0.013209 0.299961,-0.079495 0.488342,-0.1472997 0.620898,-0.2234863 1.172226,-0.3149823 1.743887,-0.2894068 1.8462,0.082596 3.345964,1.2419813 3.756739,2.9041307 0.04662,0.1886668 0.05363,0.2832342 0.05321,0.7182396 -4.24e-4,0.4330767 -0.0078,0.5306566 -0.05438,0.7200637 -0.223504,0.9088407 -0.752861,1.6558894 -1.56866,2.2137494 -0.26494,0.181172 -0.433685,0.356358 -0.55188,0.572944 -0.288982,0.529539 -0.197747,1.193025 0.222589,1.618757 0.06896,0.06986 0.238318,0.206603 0.376347,0.303898 0.798929,0.563166 1.300911,1.281372 1.522484,2.178275 0.04684,0.189614 0.05397,0.284743 0.05397,0.719468 0,0.551782 -0.02642,0.716242 -0.183372,1.141278 -0.523033,1.416446 -1.968703,2.406028 -3.623552,2.480372 -0.509055,0.02287 -1.098375,-0.0623 -1.562272,-0.225762 -0.547673,-0.192991 -0.637444,-0.216165 -0.881715,-0.22761 -0.303121,-0.0142 -0.537209,0.02952 -0.813332,0.151928 -0.168597,0.07474 -0.249317,0.129595 -0.418348,0.284302 -0.32758,0.299824 -0.394122,0.447959 -0.514646,1.145715 -0.08384,0.485358 -0.297777,0.984603 -0.602537,1.406083 -0.169313,0.234158 -0.245877,0.319387 -0.48723,0.542369 -0.569601,0.526244 -1.23367,0.85744 -2.044738,1.019788 -0.215933,0.04322 -0.359392,0.05578 -0.712735,0.0624 -0.243313,0.0046 -0.475566,0.0038 -0.516117,-0.0017 z m 0.942151,-2.219297 c 0.248692,-0.07886 0.425688,-0.179566 0.616155,-0.350548 0.295503,-0.265275 0.412628,-0.50487 0.492186,-1.006833 0.105382,-0.664877 0.328879,-1.180358 0.733908,-1.692697 0.576761,-0.72957 1.458033,-1.243556 2.45853,-1.433891 0.270893,-0.05154 0.370729,-0.05938 0.766157,-0.06018 0.584731,-0.0012 1.035687,0.0734 1.48691,0.245932 0.461121,0.176314 0.546211,0.195374 0.872485,0.195442 0.504557,1.05e-4 0.804187,-0.111765 1.155755,-0.431512 0.332988,-0.30285 0.470615,-0.606583 0.468877,-1.034776 -0.0021,-0.511467 -0.215846,-0.877657 -0.7128,-1.221034 -0.759241,-0.524606 -1.287045,-1.225332 -1.514224,-2.010316 -0.338201,-1.168601 -0.01931,-2.39293 0.863417,-3.3149446 0.1768,-0.1846688 0.378415,-0.3501335 0.717537,-0.5888812 0.432757,-0.3046676 0.643926,-0.688248 0.646015,-1.1734596 0.0011,-0.2613553 -0.04257,-0.4402189 -0.162703,-0.666081 C 21.105164,6.5761365 20.346676,6.243996 19.633472,6.3809617 19.544587,6.3980299 19.351048,6.4570895 19.203373,6.5122053 18.627278,6.7272186 18.21225,6.8035345 17.620002,6.8033611 17.156931,6.8032255 16.906406,6.7730699 16.509968,6.6697463 15.446241,6.3925076 14.550853,5.7225795 14.045958,4.8261757 13.832727,4.4476007 13.71273,4.0941394 13.638685,3.62653 13.611116,3.4524207 13.570789,3.2598711 13.549071,3.1986421 13.472444,2.9826067 13.337344,2.7824009 13.159206,2.6209003 12.843381,2.3345711 12.522511,2.2069874 12.07788,2.190946 11.769322,2.1798138 11.570341,2.2126393 11.322627,2.3155389 10.806918,2.5297634 10.474529,2.9474258 10.39398,3.4824264 10.343773,3.8158888 10.267623,4.1283119 10.181222,4.3552997 9.7537822,5.4782626 8.751112,6.3432345 7.4983297,6.6697463 7.1008922,6.7733301 6.8516049,6.8032538 6.388295,6.8029916 5.78112,6.802648 5.3916022,6.7312945 4.8085815,6.5136125 4.3659788,6.3483587 4.10126,6.3164572 3.717704,6.3821497 3.4025023,6.4361353 3.1467818,6.5640558 2.8983554,6.7920173 2.5459983,7.1153476 2.4189272,7.4163333 2.4367259,7.8854503 c 0.00776,0.2045878 0.022671,0.2888704 0.074181,0.4193548 0.1232593,0.3122368 0.3080666,0.5270737 0.6577954,0.7646813 0.7358136,0.4999159 1.2583091,1.1989976 1.4871659,1.9897796 0.2591938,0.895605 0.1353894,1.82807 -0.3509174,2.643026 -0.2740666,0.459282 -0.6667089,0.867948 -1.1683253,1.216006 -0.4929429,0.34204 -0.7061295,0.707737 -0.7090959,1.21638 -0.00248,0.42512 0.1369874,0.732943 0.4701908,1.03777 0.1690734,0.154676 0.2498825,0.209577 0.4184441,0.284283 0.471481,0.208957 0.9265345,0.21094 1.4564919,0.0063 0.2879162,-0.111153 0.5634536,-0.189733 0.883895,-0.252075 0.2114335,-0.04113 0.3304213,-0.04913 0.731743,-0.04918 0.4257714,-5.9e-5 0.5140113,0.0066 0.7907335,0.05951 1.0875576,0.208013 1.9849336,0.762779 2.5821352,1.5963 0.3295749,0.459989 0.5131779,0.9202 0.6095949,1.527972 0.02695,0.169895 0.07137,0.370272 0.09873,0.445282 0.169642,0.465307 0.63426,0.846805 1.165072,0.956639 0.237215,0.04908 0.671165,0.02874 0.893935,-0.0419 z"
       id="path2-7" />
    <path
       style="fill:#ffffff;stroke-width:0.0467852"
       d="M 11.427631,16.299687 C 10.759933,16.221442 10.041003,15.992636 9.4918753,15.683617 8.532588,15.143781 7.8109852,14.319 7.4586465,13.359662 7.1194985,12.436242 7.1196376,11.527834 7.4590687,10.603658 8.0437151,9.0118282 9.5906731,7.8724692 11.450521,7.66389 c 0.267489,-0.029998 0.839766,-0.029998 1.107256,0 1.432307,0.1606312 2.694681,0.8727878 3.472181,1.9588003 0.562814,0.7861377 0.843301,1.7763677 0.758219,2.6768197 -0.03833,0.405683 -0.101855,0.688048 -0.238526,1.060152 -0.584904,1.592558 -2.131983,2.732329 -3.991874,2.940913 -0.240074,0.02692 -0.897217,0.02641 -1.130146,-8.88e-4 z m 1.035176,-2.166993 c 1.225714,-0.214229 2.08173,-1.261966 1.943907,-2.37929 -0.113611,-0.921091 -0.815145,-1.656291 -1.812716,-1.8997203 -0.136765,-0.033374 -0.257707,-0.041981 -0.589849,-0.041981 -0.332142,0 -0.453084,0.00861 -0.58985,0.041978 -0.91248,0.2226653 -1.5808821,0.8572943 -1.784553,1.6943793 -0.04204,0.172777 -0.04204,0.695561 0,0.868339 0.047226,0.194122 0.119928,0.377926 0.22457,0.56776 0.314941,0.571375 0.964515,1.017206 1.670581,1.146593 0.216354,0.03965 0.716245,0.04068 0.93791,0.002 z"
       id="path3-1" />
  </g>
</svg>
