<?xml version="1.0" encoding="UTF-8" standalone="no"?>
<svg
   width="24"
   height="24"
   viewBox="0 0 24 24"
   fill="none"
   stroke="currentColor"
   stroke-width="2"
   stroke-linecap="round"
   stroke-linejoin="round"
   class="lucide lucide-trash-icon lucide-trash"
   version="1.1"
   id="svg3"
   sodipodi:docname="Trash_White.svg"
   inkscape:version="1.4.2 (f4327f4, 2025-05-13)"
   xmlns:inkscape="http://www.inkscape.org/namespaces/inkscape"
   xmlns:sodipodi="http://sodipodi.sourceforge.net/DTD/sodipodi-0.dtd"
   xmlns="http://www.w3.org/2000/svg"
   xmlns:svg="http://www.w3.org/2000/svg">
  <defs
     id="defs3" />
  <sodipodi:namedview
     id="namedview3"
     pagecolor="#ffffff"
     bordercolor="#000000"
     borderopacity="0.25"
     inkscape:showpageshadow="2"
     inkscape:pageopacity="0.0"
     inkscape:pagecheckerboard="0"
     inkscape:deskcolor="#d1d1d1"
     inkscape:zoom="48.958333"
     inkscape:cx="11.989787"
     inkscape:cy="12"
     inkscape:window-width="2560"
     inkscape:window-height="1377"
     inkscape:window-x="-8"
     inkscape:window-y="-8"
     inkscape:window-maximized="1"
     inkscape:current-layer="svg3" />
  <path
     d="M19 6v14a2 2 0 0 1-2 2H7a2 2 0 0 1-2-2V6"
     id="path1" />
  <path
     d="M3 6h18"
     id="path2" />
  <path
     d="M8 6V4a2 2 0 0 1 2-2h4a2 2 0 0 1 2 2v2"
     id="path3" />
  <path
     style="fill:#ffffff;stroke-width:0.0408511"
     d="M 6.6995745,22.974912 C 5.7894367,22.875282 4.9652918,22.362761 4.4690412,21.587781 4.2346801,21.221788 4.0745121,20.746539 4.0240281,20.267342 4.0115336,20.148742 4.0039803,17.641471 4.0037582,13.53886 L 4.0034043,6.9994215 3.4059574,6.9909314 C 2.8569248,6.9831295 2.798826,6.978874 2.6889989,6.938419 2.3195462,6.80233 2.08422,6.5163423 2.0221917,6.1280601 1.9464542,5.6539629 2.2972358,5.1473315 2.7778723,5.0366357 2.8379847,5.0227913 3.5845837,5.0152939 4.9356768,5.0149675 L 7.0015662,5.0144681 7.011879,4.3251064 C 7.0232158,3.5672975 7.0389304,3.4396726 7.1685386,3.052818 7.3201867,2.6001789 7.5375252,2.2538825 7.8931506,1.898257 8.3361087,1.455299 8.7945586,1.205544 9.4161702,1.0685442 L 9.6306383,1.0212766 H 12 14.369362 l 0.214468,0.047268 c 0.624031,0.137533 1.078986,0.3853455 1.523032,0.82959 0.441453,0.4416501 0.699972,0.9220697 0.829486,1.5414751 0.03468,0.1658794 0.04266,0.3024762 0.05171,0.8854971 l 0.01069,0.6893617 2.065732,4.994e-4 c 1.350984,3.264e-4 2.097535,0.00782 2.157647,0.021668 0.481596,0.1109168 0.831569,0.6163801 0.75568,1.0914244 -0.06203,0.3882822 -0.297354,0.6742699 -0.666807,0.8103589 -0.109827,0.040455 -0.167926,0.044711 -0.716958,0.052512 l -0.597447,0.00849 -5.27e-4,6.5292258 c -3.14e-4,3.887765 -0.0082,6.608537 -0.01961,6.725269 -0.03798,0.390242 -0.137201,0.742863 -0.300613,1.068334 -0.166134,0.330893 -0.359224,0.590071 -0.635441,0.852927 -0.397463,0.378238 -0.863116,0.620417 -1.458483,0.758535 l -0.189586,0.04398 -5.310638,0.0025 c -2.9208509,0.0014 -5.3428084,-10e-4 -5.3821275,-0.0053 z M 17.248513,20.976384 c 0.370986,-0.09663 0.659259,-0.393907 0.736795,-0.759809 0.0251,-0.118443 0.02935,-1.076562 0.02966,-6.679554 l 3.54e-4,-6.5412763 H 12 5.9846809 l 3.545e-4,6.5412763 c 3.898e-4,7.187042 -0.00852,6.691224 0.1247763,6.941319 0.124337,0.23328 0.3702455,0.426397 0.6329082,0.497036 0.094655,0.02546 0.8286408,0.02978 5.2478821,0.03094 4.550482,0.0012 5.151563,-0.0022 5.257911,-0.02993 z M 15.012464,4.4578723 c -2.3e-4,-0.4241753 -0.0076,-0.5877299 -0.03115,-0.6874607 -0.08583,-0.3641386 -0.365688,-0.6522395 -0.726978,-0.7484003 -0.16336,-0.04348 -4.3453142,-0.04348 -4.508674,0 C 9.3769597,3.1201452 9.0755557,3.4407452 9.0076349,3.8070432 8.9964145,3.8675553 8.987234,4.1639808 8.987234,4.4657666 V 5.0144681 H 12 15.012766 Z"
     id="path4" />
</svg>
