<?xml version="1.0" encoding="UTF-8" standalone="no"?>
<svg
   width="24"
   height="24"
   viewBox="0 0 24 24"
   fill="none"
   stroke="currentColor"
   stroke-width="2"
   stroke-linecap="round"
   stroke-linejoin="round"
   class="lucide lucide-arrow-big-up-icon lucide-arrow-big-up"
   version="1.1"
   id="svg1"
   sodipodi:docname="Up_white.svg"
   inkscape:version="1.4.2 (f4327f4, 2025-05-13)"
   xmlns:inkscape="http://www.inkscape.org/namespaces/inkscape"
   xmlns:sodipodi="http://sodipodi.sourceforge.net/DTD/sodipodi-0.dtd"
   xmlns="http://www.w3.org/2000/svg"
   xmlns:svg="http://www.w3.org/2000/svg">
  <defs
     id="defs1" />
  <sodipodi:namedview
     id="namedview1"
     pagecolor="#ffffff"
     bordercolor="#000000"
     borderopacity="0.25"
     inkscape:showpageshadow="2"
     inkscape:pageopacity="0.0"
     inkscape:pagecheckerboard="0"
     inkscape:deskcolor="#d1d1d1"
     inkscape:zoom="48.958333"
     inkscape:cx="11.989787"
     inkscape:cy="12"
     inkscape:window-width="2560"
     inkscape:window-height="1377"
     inkscape:window-x="-8"
     inkscape:window-y="-8"
     inkscape:window-maximized="1"
     inkscape:current-layer="svg1" />
  <path
     d="M9 13a1 1 0 0 0-1-1H5.061a1 1 0 0 1-.75-1.811l6.836-6.835a1.207 1.207 0 0 1 1.707 0l6.835 6.835a1 1 0 0 1-.75 1.811H16a1 1 0 0 0-1 1v6a1 1 0 0 1-1 1h-4a1 1 0 0 1-1-1z"
     id="path1" />
  <path
     style="fill:#ffffff;stroke-width:0.0408511"
     d="M 9.6052075,20.944675 C 8.8473735,20.785515 8.2832863,20.24616 8.0714592,19.478173 l -0.054191,-0.196471 -0.00579,-3.15272 -0.00579,-3.152719 -1.7305048,0.0053 c -1.8328835,0.0056 -1.7827397,0.0078 -2.0724338,-0.09337 C 3.3821206,12.601463 2.8302717,11.766392 2.8872154,10.897472 2.9195868,10.403508 3.1353286,9.937259 3.4844656,9.6067296 3.5714404,9.52439 5.2196971,7.8844445 7.1472582,5.962406 9.5371306,3.5793812 10.690897,2.4425822 10.774468,2.3885398 c 0.771234,-0.4987315 1.67983,-0.4987315 2.451064,0 0.08358,0.05405 1.236955,1.1905258 3.627001,3.5738662 1.927447,1.9220385 3.574356,3.5599161 3.659798,3.6397285 0.309126,0.2887569 0.518959,0.6991795 0.585707,1.1456075 0.136114,0.910378 -0.425591,1.834656 -1.30079,2.140432 -0.289694,0.101213 -0.23955,0.09895 -2.072434,0.09337 l -1.730504,-0.0053 -0.0058,3.152719 -0.0058,3.15272 -0.05363,0.194277 c -0.214755,0.7779 -0.779737,1.313134 -1.552731,1.470977 -0.189374,0.03867 -0.284809,0.04022 -2.389787,0.03883 -2.0889886,-0.0014 -2.2014546,-0.0033 -2.3813715,-0.04111 z m 4.4074205,-5.028079 c 5.84e-4,-2.534765 0.0058,-3.117751 0.02891,-3.247502 0.136025,-0.762918 0.695817,-1.377284 1.45123,-1.592708 l 0.163404,-0.0466 h 1.746383 1.746383 L 15.652184,7.5383393 C 13.72897,5.618043 12.134247,4.0351347 12.108354,4.0207652 c -0.06023,-0.033426 -0.156477,-0.033426 -0.216708,0 -0.02589,0.01437 -1.620616,1.5972778 -3.5438298,3.5175741 L 4.8510638,11.029787 h 1.746383 1.746383 l 0.1634042,0.04678 c 0.6338976,0.18148 1.1388237,0.645544 1.3590988,1.249113 0.1259781,0.345188 0.1217523,0.220282 0.1217523,3.598696 v 3.081579 H 12 14.011915 Z"
     id="path2" />
</svg>
