<?xml version="1.0" encoding="UTF-8" standalone="no"?>
<svg
   width="24"
   height="24"
   viewBox="0 0 24 24"
   fill="none"
   stroke="#000000"
   stroke-width="2"
   stroke-linecap="round"
   stroke-linejoin="round"
   class="lucide lucide-files-icon lucide-files"
   version="1.1"
   id="svg3"
   sodipodi:docname="Duplicate_white.svg"
   inkscape:version="1.4.2 (f4327f4, 2025-05-13)"
   xmlns:inkscape="http://www.inkscape.org/namespaces/inkscape"
   xmlns:sodipodi="http://sodipodi.sourceforge.net/DTD/sodipodi-0.dtd"
   xmlns="http://www.w3.org/2000/svg"
   xmlns:svg="http://www.w3.org/2000/svg">
  <defs
     id="defs3" />
  <sodipodi:namedview
     id="namedview3"
     pagecolor="#ffffff"
     bordercolor="#000000"
     borderopacity="0.25"
     inkscape:showpageshadow="2"
     inkscape:pageopacity="0.0"
     inkscape:pagecheckerboard="0"
     inkscape:deskcolor="#d1d1d1"
     inkscape:zoom="32.708333"
     inkscape:cx="12.015287"
     inkscape:cy="12"
     inkscape:window-width="1680"
     inkscape:window-height="987"
     inkscape:window-x="2552"
     inkscape:window-y="219"
     inkscape:window-maximized="1"
     inkscape:current-layer="svg3" />
  <path
     d="M15 2a2 2 0 0 1 1.414.586l4 4A2 2 0 0 1 21 8v7a2 2 0 0 1-2 2h-8a2 2 0 0 1-2-2V4a2 2 0 0 1 2-2z"
     id="path1" />
  <path
     d="M15 2v4a2 2 0 0 0 2 2h4"
     id="path2" />
  <path
     d="M5 7a2 2 0 0 0-2 2v11a2 2 0 0 0 2 2h8a2 2 0 0 0 1.732-1"
     id="path3" />
  <path
     style="fill:#ffffff;stroke-width:0.0611465"
     d="M 4.4365751,22.928922 C 3.8155634,22.793079 3.3769548,22.559021 2.9245486,22.122049 2.5298452,21.74081 2.2613527,21.283654 2.0998501,20.717852 L 2.033121,20.484076 2.0249424,14.614639 C 2.0160747,8.2507228 2.0095591,8.5321746 2.1770889,8.0424611 2.5767309,6.8742509 3.6900985,6.0481493 4.8917197,6.028247 5.1799304,6.023477 5.2300669,6.031057 5.3822868,6.102454 5.6238387,6.215751 5.7625073,6.3501364 5.8762297,6.581139 6.0076736,6.8481397 6.0146366,7.128085 5.8962197,7.3848342 5.7226597,7.7611432 5.4422947,7.9438486 4.9635454,7.9926307 4.5721695,8.0325098 4.3171785,8.177072 4.1382474,8.4605172 3.9653778,8.7343604 3.9728631,8.4414921 3.9816887,14.586044 l 0.00812,5.653446 0.069374,0.150431 c 0.1129119,0.244838 0.2621081,0.401443 0.4887441,0.513015 l 0.204927,0.100886 h 4.2350377 c 4.0920195,0 4.2401395,-0.002 4.3861105,-0.05827 0.180557,-0.06964 0.3741,-0.241254 0.541973,-0.480573 0.210488,-0.300072 0.462723,-0.43442 0.820506,-0.437028 0.190567,-0.0014 0.258691,0.01262 0.401778,0.08263 0.422007,0.206468 0.652313,0.678613 0.546391,1.120144 -0.04734,0.197318 -0.285393,0.565533 -0.530961,0.821268 -0.366052,0.381205 -0.816204,0.655468 -1.349868,0.822429 l -0.27516,0.08609 -4.4484068,0.0056 c -3.7103652,0.0046 -4.4808056,-0.0015 -4.6436797,-0.03715 z"
     id="path4" />
  <path
     style="fill:#ffffff;stroke-width:0.0611465"
     d="M 10.618145,17.960386 C 10.318212,17.920621 10.066857,17.842795 9.7375796,17.68774 8.9093591,17.297735 8.3434138,16.608201 8.0930418,15.684076 L 8.0267764,15.43949 8.0169329,9.6917197 C 8.0102551,5.7924969 8.0174725,3.8533405 8.0393742,3.6622159 8.1765694,2.4649851 8.9992178,1.4997193 10.202312,1.1243032 l 0.269026,-0.083947 2.384713,-0.010168 c 1.719762,-0.00733 2.448203,-1.687e-4 2.612407,0.025693 0.494191,0.077835 0.99811,0.304182 1.402962,0.6301723 0.128872,0.1037691 1.190491,1.1495333 2.359153,2.3239204 2.335687,2.3471285 2.330925,2.3416451 2.557235,2.9441515 0.199423,0.5309235 0.194358,0.4125652 0.194358,4.5414156 0,4.035231 0.002,3.980794 -0.162762,4.463695 -0.324373,0.95079 -1.091524,1.659477 -2.096002,1.936268 l -0.294103,0.08104 -4.310828,0.0045 c -2.370955,0.0025 -4.396102,-0.0068 -4.500326,-0.02064 z m 8.817948,-2.039555 c 0.171432,-0.0916 0.335439,-0.23843 0.425249,-0.380698 0.166465,-0.263698 0.164136,-0.213816 0.164136,-3.514605 V 8.9760055 l -1.780892,-0.00962 -1.780892,-0.00962 -0.272746,-0.084861 C 15.669328,8.7096116 15.273163,8.4732572 14.902687,8.1033224 14.392829,7.5942081 14.109813,7.0009254 14.034179,6.2826809 14.017365,6.1230026 14.003369,5.3142105 14.003078,4.4853652 l -5.3e-4,-1.5069914 -1.628026,0.0089 -1.628025,0.0089 -0.168153,0.079741 c -0.19962,0.094662 -0.402421,0.2923416 -0.497194,0.4846372 l -0.06841,0.1388071 v 5.8089172 5.8089167 l 0.09069,0.163733 c 0.113383,0.204703 0.311852,0.381778 0.51639,0.460726 0.154453,0.05962 0.233173,0.06059 4.42222,0.05443 l 4.264968,-0.0063 z m -1.70371,-10.6317709 -1.727287,-1.7275005 -0.008,1.3127508 c -0.0078,1.2777242 -0.0062,1.3174285 0.05763,1.4880755 0.07035,0.188035 0.243977,0.3993591 0.41491,0.5050013 0.225463,0.139344 0.289552,0.1449719 1.675451,0.147128 l 1.314549,0.00205 z"
     id="path5" />
</svg>
