<?xml version="1.0" encoding="UTF-8" standalone="no"?>
<svg
   width="24"
   height="24"
   viewBox="0 0 24 24"
   fill="none"
   stroke="currentColor"
   stroke-width="2"
   stroke-linecap="round"
   stroke-linejoin="round"
   class="lucide lucide-plus-icon lucide-plus"
   version="1.1"
   id="svg2"
   sodipodi:docname="Plus_white.svg"
   inkscape:version="1.4.2 (f4327f4, 2025-05-13)"
   xmlns:inkscape="http://www.inkscape.org/namespaces/inkscape"
   xmlns:sodipodi="http://sodipodi.sourceforge.net/DTD/sodipodi-0.dtd"
   xmlns="http://www.w3.org/2000/svg"
   xmlns:svg="http://www.w3.org/2000/svg">
  <defs
     id="defs2" />
  <sodipodi:namedview
     id="namedview2"
     pagecolor="#ffffff"
     bordercolor="#000000"
     borderopacity="0.25"
     inkscape:showpageshadow="2"
     inkscape:pageopacity="0.0"
     inkscape:pagecheckerboard="0"
     inkscape:deskcolor="#d1d1d1"
     inkscape:zoom="48.958333"
     inkscape:cx="11.989787"
     inkscape:cy="12"
     inkscape:window-width="2560"
     inkscape:window-height="1377"
     inkscape:window-x="-8"
     inkscape:window-y="-8"
     inkscape:window-maximized="1"
     inkscape:current-layer="svg2" />
  <path
     d="M5 12h14"
     id="path1" />
  <path
     d="M12 5v14"
     id="path2" />
  <path
     style="fill:#ffffff;stroke-width:0.0408511"
     d="m 11.746818,19.954059 c -0.350429,-0.09424 -0.640288,-0.402456 -0.714884,-0.760171 -0.0159,-0.07622 -0.02257,-1.011104 -0.02257,-3.160595 v -3.052356 l -3.1302131,-0.0054 -3.1302127,-0.0054 -0.1594924,-0.07616 C 4.2898884,12.751021 4.0791337,12.470858 4.023653,12.14193 3.9544788,11.731819 4.1928779,11.2953 4.5894438,11.105943 l 0.1594924,-0.07616 3.1302127,-0.0054 3.1302131,-0.0054 V 7.9667073 c 0,-2.1494909 0.0067,-3.0843726 0.02257,-3.1605956 0.07558,-0.3624486 0.366131,-0.6680562 0.723674,-0.7611842 0.15314,-0.039888 0.335644,-0.039888 0.488784,0 0.357543,0.093128 0.64809,0.3987356 0.723674,0.7611842 0.0159,0.076223 0.02257,1.0111047 0.02257,3.1605956 v 3.0523557 l 3.130213,0.0054 3.130213,0.0054 0.160975,0.07686 c 0.298005,0.142287 0.493533,0.398618 0.559507,0.733496 0.02838,0.144023 0.02838,0.175689 0,0.319712 -0.06597,0.334878 -0.261502,0.591209 -0.559507,0.733496 l -0.160975,0.07686 -3.130213,0.0054 -3.130213,0.0054 v 3.052356 c 0,2.149491 -0.0067,3.084372 -0.02257,3.160595 -0.07558,0.362449 -0.366131,0.668057 -0.723674,0.761184 -0.148308,0.03863 -0.351697,0.03822 -0.497574,-10e-4 z"
     id="path3" />
</svg>
