<?xml version="1.0" encoding="UTF-8" standalone="no"?>
<svg
   width="24"
   height="24"
   viewBox="0 0 24 24"
   fill="none"
   stroke="currentColor"
   stroke-width="2"
   stroke-linecap="round"
   stroke-linejoin="round"
   class="lucide lucide-square-play-icon lucide-square-play"
   version="1.1"
   id="svg1"
   sodipodi:docname="ToolSettings_dark.svg"
   xml:space="preserve"
   inkscape:version="1.4.2 (f4327f4, 2025-05-13)"
   xmlns:inkscape="http://www.inkscape.org/namespaces/inkscape"
   xmlns:sodipodi="http://sodipodi.sourceforge.net/DTD/sodipodi-0.dtd"
   xmlns="http://www.w3.org/2000/svg"
   xmlns:svg="http://www.w3.org/2000/svg"><defs
     id="defs1" /><sodipodi:namedview
     id="namedview1"
     pagecolor="#ffffff"
     bordercolor="#000000"
     borderopacity="0.25"
     inkscape:showpageshadow="2"
     inkscape:pageopacity="0.0"
     inkscape:pagecheckerboard="0"
     inkscape:deskcolor="#d1d1d1"
     inkscape:zoom="48.958333"
     inkscape:cx="11.989787"
     inkscape:cy="12"
     inkscape:window-width="2560"
     inkscape:window-height="1377"
     inkscape:window-x="-8"
     inkscape:window-y="-8"
     inkscape:window-maximized="1"
     inkscape:current-layer="svg1" /><rect
     x="3"
     y="3"
     width="18"
     height="18"
     rx="2"
     id="rect1" /><path
     d="M9 9.003a1 1 0 0 1 1.517-.859l4.997 2.997a1 1 0 0 1 0 1.718l-4.997 2.997A1 1 0 0 1 9 14.996z"
     id="path1" /><rect
     style="fill:#ffffff;fill-opacity:1;stroke:none"
     id="rect2"
     width="12.357447"
     height="11.867234"
     x="5.9846807"
     y="5.841702" /><g
     style="fill:none;stroke:currentColor;stroke-width:2;stroke-linecap:round;stroke-linejoin:round"
     id="g2"
     transform="matrix(0.53304596,0,0,0.53304596,5.611596,5.5951671)"><path
       d="m 14.7,6.3 a 1,1 0 0 0 0,1.4 l 1.6,1.6 a 1,1 0 0 0 1.4,0 l 3.106,-3.105 c 0.32,-0.322 0.863,-0.22 0.983,0.218 A 6,6 0 0 1 13.53,13.47 l -7.91,7.91 a 2.1209668,2.1209668 0 0 1 -2.999,-3 l 7.91,-7.91 a 6,6 0 0 1 7.057,-8.259 c 0.438,0.12 0.54,0.662 0.219,0.984 z"
       id="path1-8" /></g></svg>
