<?xml version="1.0" encoding="UTF-8" standalone="no"?>
<svg
   width="24"
   height="24"
   viewBox="0 0 24 24"
   fill="none"
   stroke="currentColor"
   stroke-width="2"
   stroke-linecap="round"
   stroke-linejoin="round"
   class="lucide lucide-square-play-icon lucide-square-play"
   version="1.1"
   id="svg1"
   sodipodi:docname="ToolPlay_white.svg"
   inkscape:version="1.4.2 (f4327f4, 2025-05-13)"
   xmlns:inkscape="http://www.inkscape.org/namespaces/inkscape"
   xmlns:sodipodi="http://sodipodi.sourceforge.net/DTD/sodipodi-0.dtd"
   xmlns="http://www.w3.org/2000/svg"
   xmlns:svg="http://www.w3.org/2000/svg">
  <defs
     id="defs1" />
  <sodipodi:namedview
     id="namedview1"
     pagecolor="#ffffff"
     bordercolor="#000000"
     borderopacity="0.25"
     inkscape:showpageshadow="2"
     inkscape:pageopacity="0.0"
     inkscape:pagecheckerboard="0"
     inkscape:deskcolor="#d1d1d1"
     inkscape:zoom="48.958333"
     inkscape:cx="11.989787"
     inkscape:cy="12"
     inkscape:window-width="2560"
     inkscape:window-height="1377"
     inkscape:window-x="-8"
     inkscape:window-y="-8"
     inkscape:window-maximized="1"
     inkscape:current-layer="svg1" />
  <rect
     x="3"
     y="3"
     width="18"
     height="18"
     rx="2"
     id="rect1" />
  <path
     d="M9 9.003a1 1 0 0 1 1.517-.859l4.997 2.997a1 1 0 0 1 0 1.718l-4.997 2.997A1 1 0 0 1 9 14.996z"
     id="path1" />
  <path
     style="fill:#ffffff;stroke-width:0.0408511"
     d="M 9.6612818,16.96045 C 9.5994975,16.950218 9.4592126,16.911123 9.3495376,16.873573 8.6577243,16.636708 8.148582,16.022012 8.036658,15.288511 c -0.044136,-0.289252 -0.044136,-6.2877698 0,-6.5770216 0.1276648,-0.8366603 0.7525576,-1.4902317 1.5902852,-1.6632691 0.1987467,-0.041052 0.5439628,-0.041052 0.7427098,0 0.36538,0.075471 0.370115,0.078095 3.140074,1.7397803 1.450161,0.8699444 2.67622,1.6140664 2.724577,1.6536054 0.344038,0.281302 0.597302,0.678306 0.701763,1.100046 0.0638,0.257567 0.0638,0.659129 0,0.916696 -0.104461,0.42174 -0.357725,0.818744 -0.701763,1.100046 -0.04836,0.03954 -1.274416,0.783661 -2.724577,1.653605 -2.769959,1.661686 -2.774694,1.664309 -3.140074,1.739781 -0.16901,0.03491 -0.5237147,0.03925 -0.7083712,0.0087 z m 2.8532192,-3.454067 c 1.374027,-0.822894 2.49823,-1.500766 2.49823,-1.506383 0,-0.0122 -4.990198,-3.0025532 -5.010553,-3.0025532 -0.00775,0 -0.014093,1.3511492 -0.014093,3.0025532 0,1.651404 0.00634,3.002553 0.014093,3.002553 0.0078,0 1.138296,-0.673276 2.512323,-1.49617 z"
     id="path2" />
  <path
     style="fill:#ffffff;stroke-width:0.0408511"
     d="M 4.6774468,21.974046 C 4.5253793,21.957559 4.2005629,21.884695 4.0493742,21.833154 3.4002917,21.611881 2.8275913,21.157176 2.4563753,20.568367 2.3630891,20.4204 2.2166529,20.103183 2.1569763,19.919794 2.0841811,19.696091 2.0451687,19.49207 2.0222112,19.21502 1.9952654,18.889837 1.9952654,5.1101627 2.0222112,4.7849803 2.0567368,4.3683262 2.1339754,4.0778188 2.3066336,3.7152194 2.4616741,3.3896191 2.6163542,3.1730655 2.889566,2.8991081 3.3326379,2.4548271 3.7974631,2.2018179 4.4175893,2.0673892 L 4.626383,2.0221277 H 12 19.373617 l 0.208794,0.045262 c 0.622097,0.1348559 1.084214,0.386354 1.528023,0.831596 0.527158,0.5288601 0.80495,1.1328935 0.867354,1.8859822 0.02669,0.322088 0.02697,14.1046491 2.9e-4,14.4265011 -0.03363,0.405743 -0.11288,0.707128 -0.278925,1.060728 -0.160257,0.341278 -0.361798,0.619913 -0.64413,0.890527 -0.389383,0.373221 -0.844871,0.618375 -1.405661,0.756554 l -0.234894,0.05788 -7.332766,0.0023 c -4.0330211,0.0013 -7.364936,-0.0012 -7.4042552,-0.0054 z M 19.258592,19.977138 c 0.378794,-0.10082 0.678344,-0.428951 0.737418,-0.807776 0.02865,-0.183738 0.02865,-14.1549856 0,-14.3387237 -0.05935,-0.3806228 -0.356826,-0.7064779 -0.737418,-0.8077759 -0.165088,-0.04394 -14.3520961,-0.04394 -14.5171843,0 -0.3805914,0.101298 -0.6780639,0.4271531 -0.7374172,0.8077759 -0.028652,0.1837381 -0.028652,14.1549857 0,14.3387237 0.058585,0.375692 0.3551442,0.704181 0.728355,0.806774 0.1529078,0.04203 14.3684025,0.04301 14.5262465,0.001 z"
     id="path3" />
</svg>
