<?xml version="1.0" encoding="UTF-8" standalone="no"?>
<svg
   width="24"
   height="24"
   viewBox="0 0 24 24"
   fill="none"
   stroke="currentColor"
   stroke-width="2"
   stroke-linecap="round"
   stroke-linejoin="round"
   class="lucide lucide-square-play-icon lucide-square-play"
   version="1.1"
   id="svg1"
   sodipodi:docname="ToolSettings_white.svg"
   xml:space="preserve"
   inkscape:version="1.4.2 (f4327f4, 2025-05-13)"
   xmlns:inkscape="http://www.inkscape.org/namespaces/inkscape"
   xmlns:sodipodi="http://sodipodi.sourceforge.net/DTD/sodipodi-0.dtd"
   xmlns="http://www.w3.org/2000/svg"
   xmlns:svg="http://www.w3.org/2000/svg"><defs
     id="defs1" /><sodipodi:namedview
     id="namedview1"
     pagecolor="#ffffff"
     bordercolor="#000000"
     borderopacity="0.25"
     inkscape:showpageshadow="2"
     inkscape:pageopacity="0.0"
     inkscape:pagecheckerboard="0"
     inkscape:deskcolor="#d1d1d1"
     inkscape:zoom="48.958333"
     inkscape:cx="11.989787"
     inkscape:cy="12"
     inkscape:window-width="2560"
     inkscape:window-height="1377"
     inkscape:window-x="-8"
     inkscape:window-y="-8"
     inkscape:window-maximized="1"
     inkscape:current-layer="svg1" /><rect
     x="3"
     y="3"
     width="18"
     height="18"
     rx="2"
     id="rect1"
     style="fill:none" /><g
     style="fill:none;stroke:currentColor;stroke-width:2;stroke-linecap:round;stroke-linejoin:round"
     id="g2"
     transform="matrix(0.68492195,0,0,0.68492195,3.7909312,3.7709588)"><path
       d="m 14.7,6.3 a 1,1 0 0 0 0,1.4 l 1.6,1.6 a 1,1 0 0 0 1.4,0 l 3.106,-3.105 c 0.32,-0.322 0.863,-0.22 0.983,0.218 A 6,6 0 0 1 13.53,13.47 l -7.91,7.91 a 2.1209668,2.1209668 0 0 1 -2.999,-3 l 7.91,-7.91 a 6,6 0 0 1 7.057,-8.259 c 0.438,0.12 0.54,0.662 0.219,0.984 z"
       id="path1-8" /></g><path
     style="fill:#ffffff;stroke-width:0.0408511"
     d="M 4.6774468,21.974046 C 4.5253794,21.957559 4.200563,21.884695 4.0493742,21.833155 3.4002918,21.611881 2.8275913,21.157176 2.4563753,20.568368 2.3630891,20.420401 2.2166529,20.103183 2.1569763,19.919794 2.0841811,19.696091 2.0451687,19.492071 2.0222113,19.21502 1.9952654,18.889837 1.9952654,5.1101628 2.0222113,4.7849803 2.0567368,4.3683262 2.1339754,4.0778188 2.3066337,3.7152194 2.4616741,3.3896192 2.6163542,3.1730655 2.889566,2.8991081 3.3326379,2.4548271 3.7974631,2.2018179 4.4175893,2.0673892 L 4.626383,2.0221277 H 12 19.373617 l 0.208794,0.045262 c 0.622097,0.1348559 1.084214,0.386354 1.528023,0.8315961 0.527158,0.5288601 0.80495,1.1328934 0.867354,1.8859822 0.02669,0.3220879 0.02697,14.104648 2.9e-4,14.4265 -0.03363,0.405744 -0.11288,0.707128 -0.278925,1.060729 -0.160257,0.341278 -0.361798,0.619913 -0.64413,0.890526 -0.389383,0.373222 -0.844871,0.618375 -1.405661,0.756556 l -0.234894,0.05788 -7.332766,0.0023 c -4.0330211,0.0013 -7.364936,-0.0012 -7.4042552,-0.0054 z M 19.258592,19.977138 c 0.378794,-0.10082 0.678345,-0.428951 0.737418,-0.807776 0.02865,-0.183738 0.02865,-14.1549856 0,-14.3387237 -0.05935,-0.3806228 -0.356826,-0.7064779 -0.737418,-0.8077759 -0.165088,-0.04394 -14.3520961,-0.04394 -14.5171842,0 -0.3805914,0.101298 -0.678064,0.4271531 -0.7374173,0.8077759 -0.028652,0.1837381 -0.028652,14.1549857 0,14.3387237 0.058585,0.375692 0.3551442,0.704181 0.7283551,0.806774 0.1529077,0.04203 14.3684024,0.04301 14.5262464,0.001 z"
     id="path2" /><path
     style="fill:#ffffff;stroke-width:0.0524904"
     d="M 6.2518281,19.480415 C 5.4689828,19.339878 4.825818,18.767158 4.5867261,17.99769 4.4144716,17.443325 4.4863691,16.832225 4.7843466,16.317998 4.8952205,16.12666 5.1413459,15.872418 7.5591668,13.451674 l 2.6531542,-2.656363 -0.0836,-0.335589 C 10.000054,9.9431807 9.9795605,9.7731111 9.9807593,9.2317951 9.9819361,8.7024285 10.013242,8.4546974 10.136645,7.9982708 10.454142,6.823971 11.224793,5.8019587 12.275099,5.1623217 13.306861,4.533978 14.532301,4.3245098 15.726343,4.5723906 c 0.476446,0.098909 0.722088,0.2432789 0.894614,0.5257863 0.19282,0.3157382 0.213239,0.6650926 0.05885,1.0067952 -0.08032,0.1777547 -0.142468,0.2455007 -1.212173,1.3213035 -1.027308,1.0331646 -1.124296,1.1381275 -1.091294,1.1810336 0.01992,0.0259 0.265403,0.2753566 0.545516,0.5543468 l 0.509297,0.5072557 1.131793,-1.1266515 C 17.596068,7.5138319 17.7107,7.4078309 17.877834,7.326385 c 0.17282,-0.084218 0.198592,-0.089225 0.45929,-0.089225 0.246069,0 0.292903,0.00782 0.42936,0.071754 0.38949,0.1824681 0.553709,0.429288 0.672066,1.0101051 0.157559,0.7732062 0.103552,1.6653048 -0.146585,2.4210749 -0.506263,1.529664 -1.756073,2.71207 -3.303165,3.125018 -0.424475,0.113304 -0.761413,0.156744 -1.2204,0.157353 -0.526011,7e-4 -0.923897,-0.05366 -1.375474,-0.187923 l -0.181318,-0.05391 -2.64004,2.636648 C 9.1195444,17.867435 7.8783792,19.089293 7.8134223,19.132518 7.6239751,19.258581 7.3858909,19.37006 7.17904,19.429542 c -0.217698,0.06261 -0.7110775,0.08967 -0.9272067,0.05087 z m 0.6954976,-1.389379 c 0.085359,-0.04254 0.8930647,-0.832873 2.9132164,-2.850535 2.9057989,-2.902216 2.8663829,-2.865482 3.1231789,-2.910665 0.100571,-0.01769 0.193508,0.006 0.65613,0.167127 1.616651,0.563144 3.411813,-0.16598 4.183994,-1.699377 0.134349,-0.266788 0.26776,-0.678786 0.315808,-0.975274 0.04074,-0.2513691 0.05683,-0.9710723 0.02172,-0.9710723 -0.01041,0 -0.456235,0.4346233 -0.990757,0.9658299 -1.037383,1.0309534 -1.06923,1.0567134 -1.416974,1.1460774 -0.326484,0.0839 -0.705099,0.02881 -1.00395,-0.146077 C 14.647386,10.7572 14.378489,10.509669 13.925897,10.058726 13.284977,9.4201495 13.248968,9.3789749 13.145316,9.1661821 12.948217,8.7615438 12.943418,8.3925089 13.130006,7.9886704 c 0.0883,-0.1911257 0.133608,-0.2411462 1.054113,-1.1638543 0.529013,-0.5302799 0.952663,-0.9733144 0.941444,-0.984521 -0.03341,-0.033368 -0.748213,-0.021439 -0.960807,0.016036 -1.234696,0.2176456 -2.25652,1.0884749 -2.66731,2.2731656 -0.271431,0.7827916 -0.243759,1.6198616 0.08103,2.4510393 0.103963,0.266064 0.115181,0.398746 0.05028,0.595291 -0.03913,0.118534 -0.278104,0.365127 -2.8594521,2.950698 -2.1877573,2.191336 -2.8286282,2.847731 -2.8699387,2.939461 -0.038113,0.08463 -0.053351,0.17456 -0.053764,0.317311 -4.93e-4,0.170374 0.011051,0.222471 0.079726,0.359906 0.1412599,0.282687 0.4101546,0.435467 0.7332991,0.416639 0.1071367,-0.0063 0.2145254,-0.03184 0.2886972,-0.06881 z"
     id="path3" /></svg>
